<svg xmlns="http://www.w3.org/2000/svg" width="60" height="60" viewBox="0 0 821 821"><path fill="#010001" d="M210.4 738.496c-5.183-3.495-6.982-8.52-6.955-14.58.076-17.32-.094-34.642.082-51.96.036-3.554-1.178-4.673-4.528-5.562-39.175-10.402-65.859-34.003-77.207-74.456-1.006-12.484-1.9-24.209-2.69-36.392.034-5.82-.035-11.182-.003-16.989.031-3.484-.038-6.523-.008-10.011.04-3.817-.02-7.185.018-11.012.03-5.82-.034-11.182-.003-17.003.025-7.822-.044-15.184-.016-23.004.034-6.484-.03-12.509.006-18.987.024-4.485-.05-8.516-.023-13.005-.262-6.818-.626-13.177-.903-19.992.337-5.154.586-9.853.936-15.012.029-10.152-.043-19.845-.01-29.997.036-14.153-.033-27.847.003-42 .032-15.151-.04-29.845-.004-44.981.035-3.484-.04-6.525-.006-9.889.036-.767-.035-1.211.007-2.103.033-3.821-.045-7.195-.01-10.974.04-1.798-.033-3.19.005-4.95.039-1.126-.034-1.885.005-3.05.17-23.418-1.433-46.616 7.963-68.779.164-.504.146-.827.429-1.363.514-.896.727-1.579.861-2.273-.08-.012-.006.132.272-.04.718-1.163 1.157-2.152 1.633-3.225.037-.084-.087-.217.218-.389.477-.595.65-1.02 1.065-1.607.668-1.029 1.092-1.894 1.799-2.915.8-1.085 1.316-2.012 2.059-3.026.499-.308.627-.593.895-1.086.813-1.038 1.345-1.933 2.171-2.973 12.697-14.148 26.86-25.72 45.066-32.282 1.32-.486 2.24-.945 3.182-1.315.022.09.207.097.574.129.82-.134 1.272-.3 1.94-.433.53-.02.755-.19 1.225-.466.757-.116 1.18-.244 2.029-.339 2.083-.293 3.742-.619 5.675-.828.778-.146 1.282-.407 2.217-.68 2.125-.189 3.818-.367 5.818-.41 1.124-.113 1.94-.36 3.227-.57 13.909-.008 27.348-.017 40.786-.108 10.271-.07 20.542-.243 31.257-.224 17.49.108 34.535.069 51.857.138.464.041.65-.025 1.288-.013 22.709.03 44.966-.016 67.682.094 7.886.08 15.314 0 23.192.006 4.138-.008 7.825-.1 11.963-.069 6.15.042 11.848-.04 18 0 8.55-.003 16.647-.128 25.176-.142 3.43.017 6.429-.076 9.873-.031 17.477.04 34.508-.058 51.98-.008 23.143.258 45.843.369 68.67.69.706.172 1.284.134 2.286.148 4.625.665 8.865 1.083 13.02 1.923 27.76 5.61 47.828 22.113 63.507 45.298 3.534 9.068 6.92 17.818 10.27 26.927.546 1.513 1.13 2.666 1.668 4.202.06 1.403.168 2.424.16 3.777.087 2.456.289 4.578.404 7.16-.088 27.495-.102 54.53-.075 81.566.003 3.301.23 6.602.201 10.354-.056 18.498.04 36.546-.017 55.037-.12 29.089-.087 57.734-.208 86.838-.052 9.608.049 18.755.092 28.354.019 25.061.096 49.67.028 74.722-.56 5.176-.972 9.912-1.442 15.075-.468 4.103-.88 7.78-1.467 11.78-1.633 5.482-3.092 10.64-4.791 16.048-3.12 5.733-5.998 11.216-9.12 16.848-.478.66-.712 1.17-.955 1.698-.01.018-.02-.033-.298.147-3.341 3.793-6.404 7.405-9.766 11.162-6.352 5.449-12.404 10.754-18.836 16.165-4.693 2.62-9.007 5.134-13.754 7.73-4.006 1.511-7.579 2.94-11.582 4.37-7.121 1.387-13.812 2.773-20.943 4.078-3.116.054-5.791.19-8.84.175-3.114-.047-5.852.055-8.979.023-36.336-.166-72.284-.198-108.231-.211-.817 0-1.634.214-2.865.175-2.763-.162-5.112-.17-7.913-.346-29.748-.184-59.046-.207-88.343-.204-.811 0-1.622.274-2.735.396-.705-.008-1.107.007-1.942-.143-2.873-.052-5.314.061-8.126.151-1.363.005-2.355.033-3.798-.112-5.847-.029-11.243.115-17.083.222-2.524.054-4.602.146-7.037.127-1.094-.038-1.83.034-2.943 0-1.504.35-2.632.806-4.1 1.327a6134 6134 0 0 0-46.85 28.199c-19.595 11.913-39.159 23.88-59 35.857a2.85 2.85 0 0 0-.869.811c.032-.02-.03-.063-.388-.012-6.176 4.003-12.37 5.185-19.078 2.604m351.988-418.068c3.024 16.304 6.887 32.507 8.855 48.937 2.357 19.686 1.82 39.517-.622 59.291-2.95 23.9-8.136 47.215-18.063 69.187-5.503 12.179-12.292 23.776-18.6 35.823 9.53 0 19.47.138 29.4-.138 1.625-.045 3.561-1.605 4.746-2.987 27.256-31.801 40.975-69.254 45.32-110.413 2.44-23.118 1.417-46.197-2.906-69.084-6.27-33.196-19.4-63.185-41.664-88.876-.925-1.069-2.29-2.466-3.473-2.49-9.938-.199-19.881-.113-29.844-.113 5.279 10.064 10.811 19.387 15.156 29.235 4.42 10.017 7.671 20.55 11.695 31.628m-281.77 200.363c-22.954-40.666-31.856-84.864-30.858-130.96.999-46.12 10.934-90.166 37.334-129.6-9.856 0-18.846-.097-27.83.09-1.6.034-3.683.816-4.682 1.986-11.956 14.008-21.925 29.321-29.203 46.276-19.256 44.855-22.761 91.227-12.504 138.69 6.614 30.607 19.997 58.088 40.246 82.086 1.418 1.681 3.48 3.892 5.32 3.966 9.736.396 19.498.186 29.98.186-2.782-4.524-5.108-8.306-7.802-12.72m11.176-149.868c-1.104 1.893-3.12 3.765-3.163 5.682-.288 12.48-.191 24.968-.122 37.453.022 4.13 2.033 6.479 6.436 6.476q49.443-.037 98.885 0c4.596.002 6.683-2.307 6.683-6.763.001-12.152-.02-24.305.015-36.457.013-4.476-2.013-6.845-6.598-6.84-33.792.04-67.585.074-102.136.45m136.373 49.6c32.493 0 64.986.004 97.478-.007 6.146-.002 7.695-1.547 7.712-7.619.034-11.83.069-23.66.062-35.49-.003-4.988-1.888-6.912-6.92-6.917-32.493-.028-64.986.017-97.478-.053-4.56-.01-6.894 1.861-6.894 6.47-.002 12.33.001 24.66-.012 36.991-.004 3.586 1.177 6.205 6.052 6.626"/><path fill="#2896ff" d="M499.843 40.68c18.519-9.09 37.62-9.823 56.81-2.92 7.105 2.556 13.549 6.952 20.147 10.867-.444 1.077-1.206 2.156-.968 2.463 5.224 6.757 10.677 13.34 15.805 20.166 1.634 2.175 2.42 4.978 3.689 7.443.411.8 1.186 2.1 1.697 2.054 4.502-.395 5.54 3.56 7.827 5.938 1.356 1.409 2.546 3.106 4.16 4.113 3.87 2.412 4.58 4.873 2.659 8.945-.743 1.572-1.233 3.833-.673 5.35 2.176 5.885 4.226 11.96 7.47 17.264 2.8 4.577 2.091 8.612.823 13.639h-6.764c-7.155-.001-13.843-.004-20.58-.351-2.246-2.9-4.699-5.278-6.59-8.041-6.105-8.921-11.53-18.347-18.097-26.904-8.93-11.637-18.687-22.638-28.052-33.943-3.404-4.11-6.446-8.551-10.13-12.382-2.547-2.647-5.727-4.844-8.964-6.624-3.356-1.845-7.08-3.067-10.722-4.331-3.124-1.084-6.36-1.843-9.547-2.746"/><path fill="#2297fd" d="M612.993 136.002h6.296c1.268-5.027 1.976-9.062-.823-13.639-3.244-5.303-5.294-11.38-7.47-17.265-.56-1.516-.07-3.777.673-5.35 1.922-4.07 1.212-6.532-2.659-8.944-1.614-1.007-2.804-2.704-4.16-4.113-2.286-2.377-3.325-6.333-7.827-5.938-.51.045-1.286-1.254-1.697-2.054-1.27-2.465-2.055-5.268-3.689-7.443-5.128-6.826-10.58-13.41-15.805-20.166-.238-.307.524-1.386 1.16-2.172 7.778 5.96 15.157 12.06 22.66 18.004 22.85 18.1 45.798 36.076 68.604 54.231 9.199 7.323 18.128 14.984 27.5 23.026 3.3 5.659 5.83 11.972 3 16.795-4.45 7.581-8.024 15.035-8.573 23.826-.006.108-.247.2-.379.3-15.532-22.866-35.6-39.37-63.36-44.98-4.155-.839-8.395-1.257-13.028-2.143-.432-.273-.519-.707-.49-1.024.04-.528.054-.74.067-.951"/><path fill="#ffa518" d="M385.062 775.108c-15.692 2.391-31.383 4.782-47.73 6.846-2.1-.794-3.547-1.263-5.188-1.794 1.96-1.7 3.685-2.966 5.136-4.491 8.062-8.476 16.176-16.909 24.04-25.565 6.45-7.098 12.543-14.519 18.855-21.742 7.375-8.439 14.87-16.772 22.215-25.235 9.252-10.66 18.406-21.404 28.071-32.121 10.155-.003 19.84.006 29.525.379-2.384 3.664-4.81 6.935-7.143 10.27-4.015 5.743-7.92 11.562-11.976 17.275-1.7 2.394-3.215 5.414-5.598 6.741-7.987 4.448-11.933 12.583-18.044 18.704-5.46 5.47-10.325 11.536-15.457 17.336-2.496 2.822-5.066 5.582-7.483 8.47-2.862 3.417-5.632 6.913-8.374 10.428-3.138 4.024-6.2 8.106-9.52 12.457z"/><path fill="#318ffd" d="M499.478 40.739c3.551.844 6.788 1.603 9.912 2.687 3.642 1.264 7.366 2.486 10.722 4.331 3.237 1.78 6.417 3.977 8.963 6.624 3.685 3.83 6.727 8.273 10.13 12.382 9.366 11.305 19.124 22.306 28.053 33.943 6.566 8.557 11.992 17.983 18.097 26.904 1.891 2.763 4.344 5.142 6.122 8.042-13.437.346-26.456.346-39.515-.021-.281-1.48-1.113-2.996-.671-3.646 3.582-5.274-.477-8.222-3.322-11.476-3.019-3.453-6.399-6.603-9.276-10.165-4.696-5.814-8.906-12.029-13.717-17.741-3.483-4.137-7.656-7.688-11.436-11.583-8.445-8.702-17.346-16.8-28.23-22.445-4.074-2.112-7.967-3.97-12.387-.658-1.055.79-2.806.652-4.236.94 10.142-6.02 20.285-12.04 30.791-18.118"/><path fill="#f91777" d="M118.98 266.005c.073 1.392.146 2.784-.283 4.674-1.943 4.232-3.382 7.967.286 11.33.071.444.142.888-.234 1.71-4.088 2.345-7.673 4.43-11.399 6.223-1.438.691-3.406.342-4.774 1.108-7.298 4.083-14.778 7.944-21.613 12.717-5.62 3.924-10.81 8.657-15.476 13.692-4 4.317-6.934 9.613-10.47 14.378-.705.95-2.006 1.457-3.059 1.885-.518-.776-1.009-1.268-1.5-1.76-.249-.701-.497-1.402-.424-2.697-.127-2.15-.575-3.705-1.024-5.26 0 0-.247-.43.085-.92.389-1.6.63-2.737.475-3.818-1.489-10.423-3.044-20.837-4.19-31.259 5.255.151 7.623-3.502 10.38-6.56 1.77-1.963 3.433-4.035 5.325-5.872 5.623-5.46 12.239-10.183 16.712-16.447 3.247-4.548 6.852-7.506 11.49-10.077 5.23-2.9 9.727-7.865 15.24-9.352 9.932-2.68 11.495-10.237 13.474-18.085 2.058-8.162 3.982-16.36 6.17-24.487.323-1.202 1.777-2.1 2.707-3.138-9.215 21.981-7.612 45.18-8.114 68.649-.225 1.427-.004 2.397.216 3.366"/><path fill="#ffb415" d="M385.494 775.103c-2.925-.582-5.417-1.169-9.104-2.037 3.32-4.351 6.383-8.433 9.521-12.457 2.742-3.515 5.512-7.01 8.374-10.428 2.417-2.888 4.987-5.648 7.483-8.47 5.132-5.8 9.996-11.865 15.457-17.336 6.11-6.121 10.057-14.256 18.044-18.704 2.383-1.327 3.898-4.347 5.598-6.741 4.056-5.713 7.961-11.532 11.976-17.274 2.332-3.336 4.759-6.607 7.613-10.28 7.168-.38 13.866-.387 21.028-.394 5.147.012 9.828.022 14.442.393-9.893 4.01-15.214 11.332-18.533 21.083-1.457 4.282-5.203 7.942-8.4 11.437-4.74 5.185-10.172 9.746-14.837 14.993-4.68 5.262-8.857 10.982-13.115 16.606-5.469 7.222-10.814 14.538-16.181 21.837-1.979 2.691-2.57 5.942.102 8.017 1.736 1.348 4.769 1.086 7.238 1.413 1.96.26 3.945.32 5.919.468-17.398 2.623-34.795 5.246-52.625 7.874"/><path fill="#fec013" d="M438.558 767.262c-2.413-.181-4.399-.241-6.358-.501-2.469-.327-5.502-.065-7.238-1.413-2.673-2.075-2.081-5.326-.102-8.017 5.367-7.299 10.712-14.615 16.181-21.837 4.258-5.624 8.435-11.344 13.115-16.606 4.665-5.247 10.096-9.808 14.838-14.993 3.196-3.495 6.942-7.155 8.399-11.437 3.32-9.75 8.64-17.073 19.003-21.092 10.557-.364 20.577-.357 30.56.009-1.184 1.448-2.188 3.233-3.5 3.5-4.037.819-5.57 3.325-6.617 6.995-3.642 12.75-11.822 23.09-19.869 33.034-7.835 9.683-17.729 17.71-26.79 26.388-5.741 5.499-9.964 11.572-8.547 20.642 1.535-.179 3.112-.58 4.66-.488 1.981.118 3.94.634 5.908.979-11.068 1.623-22.136 3.246-33.643 4.837"/><path fill="#fecb12" d="M472.64 762.394c-2.407-.314-4.366-.83-6.348-.948-1.547-.092-3.124.31-4.66.488-1.416-9.07 2.807-15.143 8.548-20.642 9.061-8.679 18.955-16.705 26.79-26.388 8.047-9.944 16.227-20.283 19.869-33.034 1.048-3.67 2.58-6.176 6.616-6.996 1.313-.266 2.317-2.05 3.968-3.507 5.528-.364 10.55-.363 15.568.02-1 4.964-2.238 9.51-2.906 14.138-.447 3.098-.085 6.313-.086 9.88.186 6.88-4.395 11.208-7.41 16.117-6.824 11.113-14.316 21.817-21.07 32.97-1.287 2.127-.881 5.661-.274 8.321.182.797 3.686 1.05 5.691 1.171 4.412.269 8.839.295 13.26.42-14.928 2.09-29.854 4.183-44.782 6.268-4.11.574-8.222 1.128-12.773 1.722"/><path fill="#ff971e" d="M429.992 671.016c-9.196 10.707-18.35 21.452-27.602 32.11-7.345 8.464-14.84 16.797-22.215 25.236-6.312 7.223-12.405 14.644-18.854 21.742-7.865 8.656-15.979 17.09-24.041 25.565-1.451 1.525-3.175 2.791-5.136 4.491 1.64.531 3.088 1 4.753 1.771a512 512 0 0 1-33.523 5.038c-4.88-4.781.458-5.813 2.282-7.663 4.572-4.642 9.535-8.898 14.642-13.452 4.414-4.827 8.354-9.679 12.68-14.156 6.984-7.226 14.381-14.054 21.309-21.33 7.012-7.367 13.641-15.096 20.485-22.624 4.423-4.866 9.078-9.53 13.357-14.516 4.404-5.131 8.472-10.549 12.697-15.833 1.705-2.132 3.437-4.243 5.577-6.372 1.823-.023 3.226-.038 5.096-.052z"/><path fill="#fa1877" d="M327.057 72.883c7.603 2.082 15.205 4.165 22.516 6.644-6.236-.933-12.277-1.946-18.096-3.698-4.354-1.31-5.246.487-5.507 4.164-.549 7.731-1.767 15.448-1.796 23.174-.027 7.235-2.12 14.854 3.388 21.511 2.551 3.083 3.848 7.203 5.952 11.317-12.998 0-25.758 0-38.56-.361-2.48-3.95-4.464-3.82-6.352.364-1.469 0-2.537-.001-3.641-.362-1.944-4.446-4.286-8.407-3.889-13.18.383-4.592.442-9.25 1.308-13.75.692-3.6 2.378-7.008 3.634-10.498.329-.914.454-2.075 1.094-2.67 2.156-2.005 1.873-3.68.357-6.063-.81-1.272-.82-3.877-.038-5.196 3.419-5.764 8.297-10.84 7.967-18.262 2.108.343 3.839.647 5.816 1.234 4.625 1.548 8.953 3.063 13.401 4.005 4.081.863 8.292 1.109 12.446 1.627"/><path fill="#fdd411" d="M530.502 754.376c-4.727-.097-9.154-.123-13.566-.392-2.005-.122-5.509-.374-5.69-1.17-.608-2.661-1.014-6.195.274-8.322 6.753-11.153 14.245-21.857 21.069-32.97 3.015-4.91 7.596-9.237 7.767-16.081 4.699 2.49 9.878 4.64 13.099 8.446 2.34 2.767 4.243 4.134 7.59 4.498.205.857.489 1.322.508 1.799.442 11.052 7.474 18.648 13.97 26.49.639.77 1.96 1.094 3.03 1.365 3.002.76 6.576.601 8.947 2.23 4.756 3.265 9.51 2.835 14.705 2.258 4.912-.546 9.914-.276 14.876-.366-8.276 1.294-16.537 2.702-24.833 3.856-15.716 2.185-31.452 4.225-47.831 6.026-2.24.134-3.829.566-5.418.999-.398.1-.796.198-1.719-.007-2.111.136-3.698.576-5.285 1.017-.395.099-.79.197-1.493.324"/><path fill="#1c97ea" d="M702.54 227.026c-.202-2.123-.404-4.245-.147-6.744 1.85-2.077 3.7-3.584 4.526-5.526 1.33-3.131 3.185-4.587 6.647-4.842 4.712-.347 9.421-1.11 14.047-2.092 2.14-.454 4.133-2.76 6.102-2.646 6.142.355 10.718-2.91 15.427-5.819 1.439-.888 2.118-3.006 3.144-4.561 9.415 13.295 13.97 28.293 14.242 44.379.154 9.074-1.313 18.177-2.528 27.312-.138-4.84.322-9.719.506-14.609.167-4.444.035-8.899.035-13.349l-1.075.004-.469 5.353c-1.852-.261-3.791-1.188-4.928-.59-7.777 4.093-16.3.731-24.245 2.712-1.224.306-2.84.773-3.766.256-5.815-3.248-11.738-3.903-17.885-1.275-2.783 1.19-5.444 2.666-8.166 3.544-.008-6.064.085-11.662-.08-17.252-.043-1.43-.903-2.837-1.387-4.255"/><path fill="#f41682" d="M51.985 334.006c1.026-.712 2.327-1.22 3.032-2.17 3.536-4.764 6.47-10.06 10.47-14.377 4.667-5.035 9.857-9.768 15.476-13.692 6.835-4.773 14.315-8.634 21.613-12.718 1.368-.765 3.336-.416 4.774-1.107 3.726-1.792 7.31-3.878 11.292-5.9.414 2.986.488 6.027.057 9.603-.902 2.04-1.596 3.534-1.643 5.049-.148 4.824-.053 9.655-.057 14.484-.007 7.959-8.164 16.649-16.183 17.946-3.13.506-6.398 1.857-8.986 3.694-7.65 5.43-15.044 11.23-22.426 17.029-2.319 1.821-4.176 4.222-6.443 6.12-1.828 1.531-3.955 2.705-5.963 3.627-1.021-5.155-2.03-9.9-3.033-14.963.004-.744.003-1.17-.004-1.896-.32-.778-.632-1.254-.953-1.732-.007-.002-.007-.017-.006-.352-.007-.783-.016-1.23-.024-2.045-.001-1.103-.002-1.838-.094-2.8-.278-.508-.534-.699-1.067-.805-.21-.007-.628-.014-.628-.014-.163-.405-.326-.81-.207-1.665a18 18 0 0 1 1.003-1.316"/><path fill="#1f97f6" d="M752.282 194.817c-1.022 1.534-1.701 3.652-3.14 4.54-4.71 2.909-9.285 6.174-15.427 5.819-1.969-.114-3.962 2.192-6.102 2.646-4.626.982-9.335 1.745-14.047 2.092-3.462.255-5.318 1.71-6.647 4.842-.825 1.942-2.677 3.449-4.41 5.194-.452-.978-.56-1.999-.589-3.778-.501-1.901-1.082-3.043-1.662-4.185-3.387-8.75-6.773-17.5-10.307-26.568-.015-.418.226-.511.232-.62.549-8.79 4.123-16.244 8.572-23.825 2.831-4.823.302-11.136-2.716-16.614 7.203 5.165 14.728 10.354 21.614 16.284 10.312 8.881 20.176 18.284 30.316 28.164.813 1.475 1.542 2.25 2.27 3.025 0 0-.091.104-.127.42.69 1.068 1.416 1.818 2.142 2.568 0 0 .023.016.028-.004"/><path fill="#3a87fa" d="M468.509 58.843c1.608-.274 3.36-.135 4.414-.926 4.42-3.312 8.313-1.454 12.386.658 10.885 5.645 19.786 13.743 28.23 22.445 3.78 3.895 7.954 7.446 11.437 11.583 4.811 5.712 9.02 11.927 13.717 17.741 2.877 3.562 6.257 6.712 9.276 10.165 2.845 3.254 6.904 6.202 3.322 11.476-.442.65.39 2.165.217 3.648-3.446.372-6.477.375-9.976.375-5.825-.007-11.182-.012-16.537-.453.873-5.243-1.062-9.29-3.904-12.807-5.717-7.074-11.886-13.783-17.541-20.904-11.482-14.455-24.493-26.802-42.38-33.064-1.416-.496-2.223-2.733-3.314-4.161 2.722-1.575 5.444-3.15 8.785-4.785.867-.328 1.114-.597 1.36-.866 0 0 .33-.139.508-.125"/><path fill="#e2d91d" d="M609.96 669.538c6.691-1.386 13.382-2.772 20.396-3.78-4.723 2.04-9.77 3.703-15.353 5.543 3.623 3 7.066 5.99 10.652 8.796 8.73 6.831 17.655 13.42 26.265 20.398 9.854 7.986 19.402 16.406 33.472 14.645-6.892 7.771-15.11 13.699-25.096 17.446-7.61.37-11.893-4.27-16.244-8.878-.888-.94-2.222-1.443-3.257-2.266-9.688-7.71-19.578-15.189-28.954-23.263-6.72-5.787-12.067-13.131-19.935-17.658-3.649-2.1-5.333-5.28-4.505-9.516 1.83-.406 3.26-.81 4.688-1.215 2.739-.103 5.477-.205 8.758.144 3.4.17 6.256-.113 9.113-.396"/><path fill="#eed818" d="M587 671.007c-.427 4.235 1.257 7.415 4.906 9.514 7.868 4.527 13.216 11.87 19.935 17.658 9.376 8.074 19.266 15.552 28.954 23.263 1.035.823 2.369 1.325 3.257 2.266 4.351 4.607 8.633 9.248 15.886 8.917-8.651 2.722-17.362 5.107-26.554 7.125-3.646-1.767-6.834-3.117-9.97-4.579-4.297-2.003-9.28-3.273-12.69-6.298-9.269-8.219-17.864-17.196-26.761-26.223-2.24-3.79-3.891-7.811-6.764-10.553-6.29-6.005-11.17-11.973-5.734-21.096 5.49.001 10.512.004 15.535.006"/><path fill="#4381f7" d="M457.533 64.77c1.414 1.277 2.22 3.514 3.637 4.01 17.887 6.262 30.898 18.609 42.38 33.064 5.655 7.12 11.824 13.83 17.54 20.904 2.843 3.517 4.778 7.564 3.437 12.81-7.82.438-15.171.438-22.528.066-.961-2.245-1.59-4.4-2.927-5.945-6.028-6.97-12.806-13.358-18.268-20.73-6.456-8.714-15.095-14.713-23.683-20.634-6.486-4.472-14.169-7.209-21.319-10.718 7.136-4.225 14.272-8.45 21.731-12.826"/><path fill="#ed178a" d="M57.012 362.005c1.994-1.333 4.12-2.507 5.949-4.038 2.267-1.898 4.124-4.299 6.443-6.12 7.382-5.799 14.776-11.599 22.426-17.03 2.588-1.836 5.856-3.187 8.986-3.693 8.019-1.297 16.176-9.987 16.183-17.946.004-4.829-.091-9.66.057-14.484.047-1.515.741-3.009 1.534-4.605.468 14.6.54 29.294.116 44.536-.896 1.383-1.767 2.311-1.622 3.035 1.392 6.92-2.304 9.904-7.967 13.074-7.84 4.39-14.885 10.245-22.094 15.707-6.966 5.279-13.49 11.163-20.63 16.18-4.14 2.909-4.964 6.002-3.95 10.606.474 2.15-.457 4.61-.752 6.929-1.618-10.401-3.236-20.802-4.542-31.885.162-3.877.012-7.072-.137-10.266"/><path fill="#fe7a32" d="M210.302 738.97c6.806 2.107 13 .925 19.18-2.72-2.18 2.148-4.723 3.988-7.267 5.828l.077 1.354c4.268.46 8.765 2.014 12.76 1.176 12.049-2.53 23.921-5.922 35.813-9.158 1.843-.502 3.435-1.936 5.131-2.958 9.67-5.827 19.336-11.66 28.998-17.112-.661 1.41-1.225 2.518-1.994 3.458-1.387 1.694-3.449 3.054-4.253 4.965-2.737 6.5-4.16 13.658-10.174 18.354-.416.325-.392 1.214-.71 2.156-1.058 1.44-1.769 2.887-2.93 3.641-12.769 8.3-26.44 14.571-41.414 17.701-6.572 1.374-13.065 4.838-19.963 1.1-.794-.43-1.842-.389-3.034-.616l-.76 4.05c-7.389-8.942-9.415-19.551-9.46-31.22"/><path fill="#f4197f" d="M294.996 135.995h38.518c-2.104-4.114-3.4-8.234-5.952-11.317-5.508-6.657-3.415-14.276-3.388-21.511.03-7.726 1.247-15.443 1.796-23.174.261-3.677 1.153-5.474 5.507-4.164 5.82 1.752 11.86 2.765 18.233 4.038.428-.057.37.003.552.288 1.42.432 2.658.579 3.895.726 0 0-.094.028.006.236.677.12 1.253.03 1.829-.058 10.619 2.694 21.238 5.389 31.57 8.476-1.904.176-3.56.105-5.137-.285-7.36-1.819-14.727-3.617-22.03-5.646-3.63-1.01-4.505.37-4.184 3.681.364 3.762.414 7.554.805 11.312.45 4.31.812 8.669 1.772 12.879 1.478 6.485 7 3.376 10.88 4.15.13.027.22.239.144.622-1.416 1.066-2.647 1.873-4.186 2.835-2.155 1.248-3.973 2.398-5.857 3.426-5.891 3.214-11.808 6.382-17.91 9.31-1.76.921-3.325 2.102-5.11 3.456-.961.69-1.699 1.207-2.671 1.725-.564.022-.832.16-1.04.415-17.046.039-34.092.078-51.587-.236-.451-.628-.451-.903-.05-1.178l3.595-.006a3299 3299 0 0 0 10 0"/><path fill="#ff862c" d="M219.77 770.175c.23-1.252.467-2.519.752-4.036 1.192.227 2.24.187 3.034.616 6.898 3.738 13.39.274 19.963-1.1 14.974-3.13 28.645-9.4 41.415-17.7 1.16-.755 1.871-2.202 3.288-3.678 5.924-2.993 11.351-5.635 16.778-7.816-.042 5.717.611 11.02-2.474 15.891-.655 1.035.275 3.072.438 5.005-.762 1.633-1.18 3.342-2.265 4.117-8.717 6.226-17.552 12.289-26.368 18.377-5.759 3.976-11.546 7.911-17.32 11.865-9.298-.293-17.481-3.406-24.55-9.512-2.989-2.582-6.16-4.955-9.371-8.11-1.185-1.771-2.247-2.854-3.309-3.936 0 0-.003.001-.011.017"/><path fill="#4c79f4" d="M435.474 77.731c7.478 3.375 15.16 6.112 21.647 10.584 8.588 5.921 17.227 11.92 23.683 20.633 5.462 7.373 12.24 13.761 18.268 20.73 1.336 1.545 1.966 3.7 2.471 5.949-4.133.784-7.817 1.193-11.501 1.603-2.998.093-5.996.186-9.475-.148-6.949-10.647-15.655-18.747-25.801-24.992-6.764-4.163-14.438-6.846-21.946-10.467-4.437-1.377-8.632-2.48-13.16-3.748-2.415-.773-4.495-1.379-6.888-2.135-1.597-.744-2.88-1.339-4.161-1.933 8.845-5.314 17.69-10.628 26.863-16.076"/><path fill="#1b9ae5" d="M704.012 249.002c2.717-1.347 5.378-2.823 8.161-4.013 6.147-2.628 12.07-1.973 17.885 1.275.926.517 2.542.05 3.766-.256 7.945-1.981 16.468 1.381 24.245-2.711 1.137-.599 3.076.328 4.928.589l.469-5.353q.537 0 1.075-.004c0 4.45.132 8.905-.035 13.35-.184 4.89-.644 9.769-.664 14.919-.843 6.815-2.005 13.365-3.495 19.679-.334-1.401-.348-2.565-.346-3.729.008-3.901-.929-6.902-5.747-6.917-2.12-.007-4.248-.488-6.356-.85-5.624-.964-11.265-1.855-16.85-3.011-5.492-1.137-11.004-2.303-16.36-3.94-4.809-1.472-7.016 2.962-10.677 3.504-.004-7.824-.001-15.178.001-22.532"/><path fill="#e41794" d="M61.784 404.57c.202-2.733 1.133-5.193.66-7.343-1.015-4.604-.191-7.697 3.949-10.606 7.14-5.017 13.664-10.901 20.63-16.18 7.209-5.462 14.254-11.317 22.094-15.707 5.663-3.17 9.359-6.154 7.967-13.074-.145-.724.726-1.652 1.517-2.576a668 668 0 0 1 .136 41.488c-4.035 2.128-7.992 3.226-11.109 5.485-11.967 8.674-26.301 13.79-36.846 24.582-.643.659-1.667 1.168-2.58 1.3-2.946.425-3.005 1.862-2.674 4.553.513 4.178.077 8.473.044 12.718-1.232-8.075-2.463-16.15-3.788-24.64"/><path fill="#d4d923" d="M685.724 715.12c-14.402 1.781-23.95-6.639-33.804-14.625-8.61-6.978-17.534-13.567-26.265-20.398-3.586-2.806-7.029-5.795-10.652-8.796 5.583-1.84 10.63-3.503 15.783-5.544 3.68-1.807 7.253-3.237 11.083-4.328-1.126 1.57-2.508 2.803-4.168 4.284.933.734 1.513 1.27 2.167 1.692 11.464 7.4 22.953 14.762 34.402 22.186 7.754 5.028 15.194 10.841 25.34 9.39-4.518 5.374-9.036 10.747-13.886 16.14"/><path fill="#1a9ddc" d="M704.017 272.002c3.655-1.01 5.862-5.444 10.672-3.973 5.355 1.638 10.867 2.804 16.36 3.94 5.584 1.157 11.225 2.048 16.85 3.012 2.107.362 4.235.843 6.355.85 4.818.015 5.755 3.016 5.747 6.917-.002 1.164.012 2.328.038 3.943-.894 8.841-1.808 17.23-3.247 25.906-.393-6.067-4.52-7.554-9.805-8.742-5.688-1.278-11.066-3.873-16.687-5.53-5.583-1.646-10.445-5.667-16.962-4.473-2.956.54-6.205-.52-9.327-1.322-.003-7.155.002-13.841.006-20.528"/><path fill="#f6d813" d="M583.998 703c8.862 8.677 17.457 17.654 26.726 25.873 3.41 3.025 8.393 4.295 12.69 6.298 3.136 1.462 6.324 2.812 9.54 4.555-4.967 1.074-9.984 1.806-15.437 2.486-5.398.039-10.4-.231-15.312.315-5.194.577-9.949 1.007-14.705-2.259-2.37-1.628-5.945-1.468-8.947-2.23-1.07-.27-2.391-.593-3.03-1.363-6.496-7.843-13.528-15.44-13.97-26.491-.02-.477-.303-.942-.257-2.078 7.076-2.026 13.533-5.676 20.899-4.366.54.096 1.199-.478 1.803-.74"/><path fill="#24c781" d="M760.386 472.237c2.953 9.59 5.907 19.18 8.531 29.253-3.029.39-6.025 1.031-8.378.08-13.402-5.414-26.814-10.864-39.877-17.033-5.692-2.687-10.814-4.65-16.757-2.013-.008-7.409-.008-14.35.015-21.605.039-.522.056-.731.522-.933 4.174.529 8.198.321 11.571 1.702 13.362 5.467 26.508 11.46 39.773 17.167 1.459.628 3.17.669 4.6.95z"/><path fill="#d9189f" d="M65.662 429.63c-.057-4.665.38-8.96-.134-13.138-.33-2.69-.272-4.128 2.675-4.554.912-.131 1.936-.64 2.579-1.299 10.545-10.791 24.88-15.908 36.846-24.582 3.117-2.259 7.074-3.357 11.004-5.026a356 356 0 0 1 .124 29.445c-2.221-2.713-4.424-2.601-7.202-.8-2.193 1.421-4.57 2.673-7.025 3.557-11.402 4.103-20.726 11.548-30.185 18.722-3.649 2.767-7.1 6.004-4.545 11.616.512 1.125-.6 2.989-.963 4.512a6539 6539 0 0 0-3.174-18.454"/><path fill="#18a0d3" d="M704.017 292.999c3.116.334 6.365 1.394 9.32.853 6.518-1.194 11.38 2.827 16.963 4.473 5.621 1.657 11 4.252 16.687 5.53 5.285 1.188 9.412 2.675 9.612 9.087-.564 6.493-1.459 12.927-2.9 19.666-4.36-1.608-8.108-3.668-12.002-5.4-6.345-2.823-12.591-6.76-19.244-7.732-5.891-.86-12.253-4.248-18.442-.946-.004-8.823.001-17.177.006-25.531"/><path fill="#1dc38d" d="M760.42 471.879c-.034 2.623-.034 4.889-.034 7.925-1.43-.28-3.141-.321-4.6-.949-13.265-5.707-26.411-11.7-39.773-17.167-3.373-1.38-7.397-1.173-11.58-2.168-.446-7.825-.435-15.178.02-22.527 8.42.168 16.272 1.304 23.379 5.022 7.162 3.747 13.982 8.144 21.011 12.152.995.568 2.325.548 3.103.715l1.25-4.98c2.42 7.206 4.84 14.413 7.224 21.977"/><path fill="#18a5c9" d="M704.02 318.999c6.18-3.771 12.542-.383 18.433.477 6.653.971 12.9 4.91 19.244 7.732 3.894 1.732 7.641 3.792 11.8 5.747-1.075 10.185-2.498 20.328-4.384 30.614-1.74-5.18-5.575-8.084-10.271-10.113-6.423-2.774-13.17-4.958-19.224-8.375-5.177-2.923-9.941-4.688-15.602-2.546-.017-8.159-.025-15.848-.025-23.537z"/><path fill="#17acbd" d="M704.025 343.004c5.652-2.61 10.416-.846 15.593 2.077 6.054 3.417 12.801 5.6 19.224 8.375 4.696 2.029 8.53 4.933 10.113 10.469-.614 7.287-1.533 14.362-3.048 21.765-7.997-3.187-15.64-6.28-22.724-10.346-6.065-3.48-11.64-7.555-19.168-5.82-.003-9.151.004-17.836.01-26.52"/><path fill="#2bcb77" d="M703.914 482.991c5.934-3.104 11.056-1.141 16.748 1.546 13.063 6.169 26.475 11.62 39.877 17.034 2.353.95 5.35.308 8.457.324 2.852 7.102 5.297 14.281 7.733 21.463.105.31.13.645-.255 1.335-.931.25-1.44.196-1.893.007-20.706-8.643-41.374-17.38-62.152-25.846-2.507-1.022-5.606-.593-8.44-1.295-.03-3.228-.05-5.995-.083-9.17-.005-2.07.002-3.734.008-5.398"/><path fill="#c7d829" d="M699.828 698.781c-10.364 1.651-17.804-4.162-25.558-9.19-11.449-7.424-22.938-14.785-34.402-22.186-.654-.422-1.234-.958-2.167-1.692 1.66-1.481 3.042-2.713 4.6-4.365 4.49-2.935 8.805-5.45 13.438-7.65-.775 2.9-.28 4.509 2.72 5.377 2.173.629 4.185 1.905 6.175 3.054 10.98 6.346 21.867 12.856 32.93 19.05 3.326 1.863 7.116 2.895 10.693 4.307-2.737 4.365-5.473 8.73-8.429 13.295"/><path fill="#3bce69" d="M778.326 531.851c.107 10.227.214 20.455-.17 30.753-.52-5.862-3.184-8.718-9.362-7.705-.683.112-1.531-.502-2.245-.887-5.805-3.128-11.552-6.368-17.402-9.409-12.152-6.315-24.3-12.643-36.585-18.69-2.543-1.252-5.676-1.306-8.546-2.377-.004-4.818 0-9.172.388-13.523 6.479 2.51 12.567 5.028 18.667 7.52 4.408 1.8 8.985 3.262 13.216 5.409 8.912 4.521 17.447 9.828 26.513 13.994 8.34 3.832 11.602 2.34 15.526-5.085"/><path fill="#4dd15c" d="M776.154 573.058c-1.987 4.755-3.974 9.51-6.35 14.398-3.696-1.654-7.03-3.388-10.301-5.236-14.81-8.368-29.596-16.779-44.403-25.152-3.668-2.074-7.384-4.062-11.086-6.553-.001-5.149.006-9.834.401-14.518 4.558 2.223 8.734 4.431 12.895 6.669 12.833 6.902 25.598 13.934 38.523 20.66 4.38 2.28 9.021 4.538 13.798 5.407 3.25.592 5.397 1.251 6.523 4.325"/><path fill="#ff8e26" d="M257.404 791.876c5.381-4.114 11.168-8.049 16.927-12.025 8.816-6.088 17.65-12.15 26.368-18.377 1.085-.775 1.503-2.484 2.631-4.12 1.888-1.255 3.454-2.038 4.844-3.06 5.97-4.393 11.889-8.857 17.827-12.892 1.272 6.11-.319 10.676-4.22 15.208-1.8 2.091-1.261 6.196-1.783 9.388-4.807 4.41-9.77 8.666-14.342 13.308-1.824 1.85-7.162 2.882-2.723 7.642-11.99 2.225-24.143 4.286-36.35 5.958-2.836.389-5.852-.544-9.179-1.03"/><path fill="#b9d72f" d="M708.52 685.253c-3.84-1.179-7.63-2.211-10.955-4.073-11.064-6.195-21.951-12.705-32.931-19.05-1.99-1.15-4.002-2.426-6.174-3.055-3.001-.868-3.496-2.476-2.342-5.482 6.113-5.725 12.165-11.03 18.771-16.294-.792 2.298-2.138 4.555-3.76 7.276 6.55 3.771 13.16 7.438 19.63 11.338 7.616 4.591 14.776 10.043 23.998 11.288 1.267.17 2.368 1.572 3.545 2.404-3.172 5.138-6.345 10.276-9.782 15.648"/><path fill="#a8d635" d="M718.574 669.378c-1.45-.605-2.55-2.006-3.817-2.177-9.222-1.245-16.382-6.697-23.998-11.288-6.47-3.9-13.08-7.567-19.63-11.338 1.622-2.721 2.968-4.978 4.059-7.42 2.809-3.798 5.872-7.41 9.308-10.821 1.637 1.791 2.643 3.741 4.23 4.877 1.835 1.312 4.278 1.733 6.29 2.843 11.372 6.27 22.694 12.632 34.032 18.963-3.4 5.378-6.801 10.756-10.474 16.361"/><path fill="#33cd70" d="M778.346 531.473c-3.944 7.803-7.207 9.295-15.546 5.463-9.066-4.166-17.601-9.473-26.513-13.994-4.231-2.147-8.808-3.609-13.216-5.41-6.1-2.49-12.188-5.009-18.677-7.98-.395-4.155-.396-7.844-.396-11.534 2.825.243 5.924-.186 8.431.836 20.778 8.466 41.446 17.203 62.152 25.846.453.189.962.244 1.906.44.935 2.038 1.407 3.996 1.859 6.333"/><path fill="#5bd255" d="M704.021 550.979c3.695 2.027 7.411 4.015 11.079 6.09 14.807 8.372 29.593 16.783 44.403 25.151 3.27 1.848 6.605 3.582 10.185 5.566-.499 1.75-1.271 3.303-2.658 5.076-1.189.521-2.08.678-2.29 1.143-1.82 4.034-4.428 4.011-7.957 2.107-16.983-9.164-34.067-18.14-50.992-27.409-1.123-.614-1.226-3.091-1.804-5.165.01-4.496.023-8.527.034-12.56"/><path fill="#19b3ae" d="M704.025 369.993c7.519-2.204 13.093 1.87 19.158 5.35 7.084 4.067 14.727 7.16 22.533 10.689-.106 8.038-.618 16.063-1.53 24.636-1.713.57-3.67 1.165-4.238.526-9.586-10.784-21.865-15.414-35.929-16.656a9166 9166 0 0 1-.035-20.934c.017-1.471.03-2.541.041-3.611"/><path fill="#43d063" d="M776.367 572.753c-1.34-2.769-3.485-3.428-6.736-4.02-4.777-.869-9.418-3.128-13.798-5.407-12.925-6.726-25.69-13.758-38.523-20.66-4.16-2.238-8.337-4.446-12.903-7.129-.392-4.153-.387-7.844-.382-11.536 2.861.606 5.994.66 8.537 1.912 12.285 6.047 24.433 12.375 36.585 18.69 5.85 3.041 11.597 6.281 17.402 9.41.714.384 1.562.998 2.245.886 6.178-1.013 8.842 1.843 9.205 8.018-.25 3.339-.834 6.435-1.632 9.836"/><path fill="#1bbe98" d="M753.184 449.548c-.352 1.808-.718 3.262-1.238 5.334-.778-.167-2.108-.147-3.103-.715-7.029-4.008-13.849-8.405-21.011-12.152-7.107-3.718-14.958-4.854-23.387-5.49-.443-7.156-.434-13.841.018-20.527 12.707.412 23.504 4.922 33.145 12.208 4.762 3.6 5.847 3.682 8.644-1.328 2.307 7.439 4.613 14.877 6.932 22.67"/><path fill="#ee1a85" d="M369.997 115.99c-.108-.125-.2-.337-.328-.363-3.88-.775-9.403 2.334-10.881-4.151-.96-4.21-1.323-8.568-1.772-12.879-.391-3.758-.44-7.55-.805-11.312-.321-3.31.554-4.69 4.185-3.681 7.302 2.029 14.67 3.827 22.029 5.646 1.577.39 3.233.46 5.281.625.43-.054.37.005.538.28 2.365.464 4.562.653 6.758.843 3.762.908 7.525 1.816 11.406 3.157-3.519 2.853-7.155 5.274-11.127 7.715-4.325 2.38-8.314 4.738-12.625 7.228-4.435 2.385-8.547 4.638-12.659 6.892"/><path fill="#97d53c" d="M729.304 652.803c-11.594-6.117-22.916-12.478-34.288-18.75-2.012-1.11-4.455-1.53-6.29-2.842-1.587-1.136-2.593-3.086-3.951-5.057-.095-.382-.086-.331.245-.31.513-.614.696-1.25.878-1.886 2.878-5.483 5.757-10.966 9.14-16.477 1.125 2.443.935 5.911 2.517 7.196 4.426 3.592 9.522 6.386 14.467 9.303 8.611 5.08 17.308 10.018 25.97 15.015-2.812 4.53-5.622 9.062-8.688 13.808"/><path fill="#78d349" d="M699.74 590.888c.411-3.677.824-7.354 1.636-11.404 4.515 2.792 8.367 6.394 12.793 9.037 11.643 6.952 23.572 13.423 35.288 20.254 1.83 1.066 3.143 3.017 4.695 4.56-2.355 3.835-4.709 7.67-7.67 11.574-4.032-1.564-7.654-2.882-10.844-4.888-9.629-6.057-19.068-12.414-28.627-18.585-3.675-2.373-8.563-3.834-6.551-9.936.037-.112-.468-.404-.72-.612"/><path fill="#64ca4e" d="M754.424 613.12c-1.824-1.328-3.137-3.279-4.967-4.345-11.716-6.831-23.645-13.302-35.288-20.254-4.426-2.643-8.278-6.245-12.736-9.464.069-4.79.482-9.525 1.27-14.692.675-.384.98-.362 1.285-.364.577 1.61.68 4.088 1.803 4.702 16.925 9.268 34.01 18.245 50.992 27.409 3.53 1.904 6.137 1.927 7.957-2.107.21-.465 1.101-.622 2.033-.94-3.787 6.6-7.931 13.22-12.349 20.054"/><path fill="#87d443" d="M699.565 591.212c.427-.116.932.176.895.288-2.012 6.102 2.876 7.563 6.551 9.936 9.559 6.17 18.998 12.528 28.627 18.585 3.19 2.006 6.812 3.324 10.612 5.114-2.33 4.581-5.037 9.006-8 13.645-8.92-4.782-17.617-9.72-26.228-14.8-4.945-2.917-10.041-5.711-14.467-9.303-1.582-1.285-1.392-4.753-2.276-7.446 1.194-5.38 2.653-10.538 4.286-16.02"/><path fill="#b21cba" d="M118.998 458.994c.063 6.024.126 12.05-.226 18.491-1.61.28-3.055-.355-3.955.096-3.214 1.61-6.154 3.763-9.36 5.39-7.31 3.712-14.828 7.03-22.023 10.946-2.507 1.365-4.311 4.023-6.436 6.09-.75-4.342-1.501-8.683-1.923-13.704.643-7.94 5.714-11.529 11.329-14.433 9.852-5.097 19.84-9.931 30.035-15.007z"/><path fill="#d019a6" d="M68.843 448.507c.356-1.947 1.468-3.811.956-4.936-2.554-5.612.896-8.849 4.545-11.616 9.46-7.174 18.783-14.619 30.185-18.722 2.455-.884 4.832-2.136 7.025-3.557 2.778-1.801 4.981-1.913 7.101 1.259.101 4.755-.148 9.454-.866 14.614-3.64 1.764-6.753 3.232-9.989 4.344-12.232 4.204-22.52 11.927-33.518 18.361-2.907 1.7-4.038 3.966-2.656 7.455.465 1.173-.557 2.934-.9 4.427a757 757 0 0 1-1.883-11.629"/><path fill="#18b9a2" d="M746.256 426.5c-2.8 5.388-3.886 5.305-8.648 1.706-9.64-7.286-20.438-11.796-33.154-12.676-.442-7.154-.433-13.838-.424-20.523 14.053.773 26.332 5.403 35.918 16.187.568.639 2.525.043 4.101-.078.915 4.935 1.563 9.97 2.207 15.383"/><path fill="#a21dc2" d="M76.986 500.427c2.137-2.487 3.94-5.145 6.448-6.51 7.195-3.917 14.713-7.234 22.023-10.946 3.206-1.627 6.146-3.78 9.36-5.39.9-.45 2.344.184 3.857.363.388 7.403.457 14.765.09 22.537-1.277-.473-2.118-1.355-3.176-2.466L81.34 513.627l-2.757-4.612c-.536-2.723-1.072-5.446-1.597-8.588"/><path fill="#c71aad" d="M70.697 460.549c.372-1.906 1.394-3.667.93-4.84-1.383-3.49-.252-5.754 2.655-7.455 10.998-6.434 21.286-14.157 33.518-18.361 3.236-1.112 6.35-2.58 9.9-3.889a148 148 0 0 1 1.02 19.465c-1.282-.882-2.11-2.155-3.531-4.34-11.623 6.313-23.252 12.29-34.483 18.938-3.348 1.982-5.582 5.844-8.326 8.845-.57-2.65-1.141-5.3-1.683-8.363"/><path fill="#be1bb2" d="M72.393 468.927c2.731-3.016 4.965-6.878 8.313-8.86 11.231-6.648 22.86-12.625 34.483-18.938 1.421 2.185 2.249 3.458 3.43 4.798.427 4.097.501 8.128.477 12.613-1.147-.42-2.195-1.292-2.657-1.677-10.196 5.076-20.183 9.91-30.035 15.007-5.615 2.904-10.686 6.494-11.317 14-1.12-4.928-1.92-10.103-2.39-15.683.132-.673-.07-.94-.273-1.208 0 0-.018-.037-.03-.052"/><path fill="#fd2f64" d="M44.99 288.014c1.536 10.416 3.091 20.83 4.58 31.253.155 1.081-.086 2.218-.452 3.571-3.329-19.26-7.113-38.681-9.158-58.285-2.108-20.204 3.244-39.072 15.257-55.623 33.448-46.086 66.94-92.141 100.708-137.991 8.806-11.957 20.732-20.098 35.686-23.709.397.27.404.714.178.994-13.757 5.121-25.87 11.965-34.517 23.944-8.722 12.085-17.577 24.075-26.423 36.07-8.655 11.736-17.466 23.359-26.041 35.152-15.01 20.643-29.306 41.836-44.991 61.947-15.932 20.428-19.611 43.435-17.662 68.126.386 4.894 1.862 9.703 2.835 14.55"/><path fill="#9120cb" d="M78.477 509.41c1.048 1.181 1.99 2.757 2.863 4.217l34.248-15.612c1.058 1.11 1.899 1.993 3.081 2.926.406 5.411.47 10.773.077 16.559-1.252.214-2.127-.33-2.824-.157-7.333 1.824-14.58 4.048-21.974 5.56-4.323.883-7.78 5.36-12.818 3.091-.92-5.396-1.839-10.793-2.653-16.584"/><path fill="#8121d3" d="M81.113 526.408c5.055 1.855 8.512-2.622 12.835-3.506 7.394-1.51 14.64-3.735 21.974-5.56.697-.172 1.572.372 2.728.617.422 3.402.481 6.77.093 10.645-3.353 2.353-6.036 4.945-9.21 5.892-7.024 2.096-14.269 3.5-21.485 4.858-1.428.269-3.132-.932-4.71-1.454-.747-3.693-1.494-7.386-2.225-11.492"/><path fill="#8f2ab9" d="M395.616 101.85c3.637-2.421 7.273-4.842 11.121-7.516.578-.34.945-.425 1.593-.52 1.563.587 2.845 1.182 4.27 2.296-.054 2.297-.92 4.337-.34 5.808 4.088 10.374 3.285 22.353 10.405 31.73.428.565.233 1.602-.135 2.424-4.816-.005-9.169-.015-13.525-.441-2.895-10.583-5.655-20.79-8.835-30.865-.416-1.32-2.983-1.96-4.554-2.916"/><path fill="#5e27f0" d="M118.997 556.005c.895 11.724 1.789 23.449 2.6 35.573-14.773-10.265-27.62-22.504-34.19-40.219.71-.354 1.138-.351 1.613-.03.685.778 1.323 1.237 1.965 2.085 1.541 3.782 2.937 7.251 4.705 10.52.521.964 2.255 2.093 3.158 1.894 5.24-1.15 10.547-2.295 15.508-4.257 1.973-.78 3.119-3.649 4.641-5.566"/><path fill="#7421dc" d="M90.981 553.024c-.638-.458-1.276-.917-2.083-2.004-1.31-2.09-2.449-3.553-3.589-5.015-.675-2.408-1.351-4.815-1.999-7.664 1.606.081 3.31 1.282 4.738 1.013 7.216-1.359 14.461-2.762 21.485-4.858 3.174-.947 5.857-3.539 9.11-5.443.418 2.98.487 6.02.084 9.58-1.455 5.55-4.651 7.941-9.62 8.362-.766.065-1.452.793-2.23 1.041-5.29 1.689-10.596 3.331-15.896 4.988"/><path fill="#fd3664" d="m192.015 47.944-.01-.666c11.88-3.934 24.072-4.571 36.008-1.54 24.256 6.162 48.323 13.065 72.734 20.158.25.688.233.88.217 1.072-1.731-.304-3.462-.608-5.912-1.103-17.456-4.755-34.203-9.28-50.926-13.893-12.099-3.337-24.108-7.225-36.926-5.97-5.077.497-10.125 1.286-15.185 1.942"/><path fill="#ff176f" d="M301.21 67.251c-.23-.475-.214-.667-.175-1.147 8.488 1.929 16.954 4.146 25.721 6.571-3.853-.31-8.064-.556-12.145-1.42-4.448-.941-8.776-2.456-13.401-4.004"/><path fill="#f91777" d="M56.998 361.594c.163 3.605.313 6.8.151 10.247a274 274 0 0 1-4.13-24.362c.528-.489.735-.51.942-.53 1.008 4.745 2.016 9.49 3.037 14.645"/><path fill="#f4197f" d="M394.687 90.773c-1.881.035-4.078-.154-6.455-.658 1.926-.066 4.033.183 6.455.658"/><path fill="#6923e7" d="M85.297 546.345c1.152 1.122 2.291 2.584 3.553 4.356-.305.307-.733.304-1.481.3-.909-1.44-1.496-2.877-2.072-4.656"/><path fill="#fd2f64" d="M48.982 324.382a15.5 15.5 0 0 1 1.069 4.508c-.569-1.23-.832-2.681-1.069-4.508"/><path fill="#fecb12" d="M539.384 753.085a15 15 0 0 1 4.597-1.011c-1.261.571-2.737.812-4.597 1.01M532.38 754.104a14.7 14.7 0 0 1 4.59-1.046c-1.258.585-2.732.842-4.59 1.046"/><path fill="#fe7a32" d="M219.868 770.471c.975.77 2.037 1.852 3.085 3.32-1.01-.746-2.003-1.876-3.085-3.32"/><path fill="#fd2f64" d="M51.152 337.339c.037-.352.455-.345.763-.118.494.505.745.7 1.06.811.001.736.002 1.47-.315 2.604-.529.424-.74.45-.951.478-.198-1.141-.395-2.282-.557-3.775M53.965 346.63c-.211.34-.418.36-.936.41-.521-1.096-.732-2.222-.701-3.7.241-.352.673-.354.673-.354l.023.314c.33.779.637 1.257.944 1.736 0 .426.001.85-.003 1.595M51.958 333.722c-.213.573-.453.862-.953 1.27-.406-.717-.553-1.554-.623-2.711.567.173 1.058.665 1.576 1.441"/><path fill="#1c97ea" d="M750.183 191.514c-.672-.456-1.401-1.231-2.107-2.396.698.433 1.375 1.255 2.107 2.396M752.202 194.508c-.674-.437-1.4-1.187-2.077-2.323.708.414 1.366 1.212 2.077 2.323"/><path fill="#fa1877" d="M353.977 80.54c-1.057.194-2.295.047-3.73-.424 1.052-.19 2.3-.054 3.73.423M355.673 81.006c-.257.142-.833.231-1.506.062.33-.21.759-.162 1.506-.062"/><path fill="#f91777" d="M53.002 342.65c-.001.336-.433.338-.648.34-.375-.405-.533-.81-.668-1.547.234-.356.445-.383.974-.44.326.418.335.865.342 1.648"/><path fill="#318ffd" d="M467.708 58.976c.047.26-.2.53-.718.865-.04-.24.193-.549.718-.865"/><path fill="#c71aad" d="M72.396 469.211c.23.035.433.303.393.619-.243.047-.42-.386-.393-.619"/><path fill="#ff176f" d="M191.79 48.224c5.286-.936 10.333-1.725 15.41-2.222 12.818-1.255 24.827 2.633 36.926 5.97 16.723 4.612 33.47 9.138 50.549 13.853 1.05 7.614-3.83 12.69-7.248 18.454-.782 1.32-.772 3.924.038 5.196 1.516 2.383 1.8 4.058-.357 6.063-.64.595-.765 1.756-1.094 2.67-1.256 3.49-2.942 6.899-3.634 10.498-.866 4.5-.925 9.158-1.308 13.75-.397 4.773 1.945 8.734 3.889 13.18-1.03.36-2.095.362-4.029.363-23.149 0-45.43-.02-67.71.04-1.74.005-3.48.57-5.478.921-.793.429-1.329.81-1.864 1.192-1.693.178-3.386.356-5.655.364-1.166.135-1.757.44-2.348.745-1.658.325-3.317.651-5.563.683-1.126 0-1.663.294-2.2.588-.136.288-.36.458-1.07.243-.974.035-1.55.336-2.128.636 0 0-.185-.007-.651-.158-1.358.366-2.248.884-3.138 1.401-17.807 6.537-31.969 18.11-45.027 32.285-1.135 1.144-1.614 2.115-2.093 3.087.015.35-.113.636-.982.975-1.054 1.13-1.513 2.14-1.972 3.151-.424.865-.848 1.73-1.834 2.917-.725.755-.888 1.188-1.052 1.621 0 0 .124.133-.297.27-.79 1.204-1.158 2.274-1.527 3.344 0 0-.074-.144-.367-.001-.459.88-.624 1.617-.789 2.354.018.324.036.647-.128 1.151-1.111 1.22-2.565 2.118-2.888 3.32-2.188 8.127-4.112 16.325-6.17 24.487-1.979 7.848-3.542 15.406-13.475 18.085-5.512 1.487-10.008 6.453-15.239 9.352-4.638 2.571-8.243 5.53-11.49 10.077-4.473 6.264-11.09 10.987-16.712 16.447-1.892 1.837-3.556 3.91-5.325 5.872-2.757 3.058-5.125 6.711-10.38 6.56-1.363-4.842-2.839-9.65-3.225-14.545-1.95-24.69 1.73-47.698 17.662-68.126 15.685-20.111 29.98-41.304 44.99-61.947 8.576-11.793 17.387-23.416 26.042-35.152 8.846-11.995 17.7-23.985 26.423-36.07 8.646-11.98 20.76-18.823 34.517-23.944"/><path fill="#fbfbfb" d="M562.258 320.043c-3.894-10.693-7.144-21.226-11.565-31.243-4.345-9.848-9.877-19.171-15.156-29.235 9.963 0 19.906-.086 29.844.114 1.184.023 2.548 1.42 3.473 2.489 22.263 25.691 35.393 55.68 41.664 88.876 4.323 22.887 5.345 45.966 2.905 69.084-4.344 41.159-18.063 78.612-45.32 110.413-1.184 1.382-3.12 2.942-4.745 2.987-9.93.276-19.87.138-29.4.138 6.308-12.047 13.097-23.644 18.6-35.823 9.927-21.972 15.114-45.286 18.063-69.187 2.441-19.774 2.979-39.605.622-59.291-1.968-16.43-5.83-32.633-8.985-49.322M280.803 521.107c2.51 4.098 4.836 7.88 7.618 12.404-10.482 0-20.244.21-29.98-.186-1.84-.074-3.902-2.285-5.32-3.966-20.249-23.998-33.632-51.479-40.246-82.086-10.257-47.463-6.752-93.835 12.504-138.69 7.278-16.955 17.247-32.268 29.203-46.276 1-1.17 3.082-1.952 4.681-1.986 8.985-.187 17.975-.09 27.83-.09-26.4 39.434-36.334 83.48-37.333 129.6-.998 46.096 7.904 90.294 31.043 131.276"/><path fill="#fafafa" d="M292.174 370.753c34.172-.205 67.965-.239 101.757-.279 4.585-.005 6.611 2.364 6.598 6.84-.035 12.152-.014 24.305-.015 36.457 0 4.456-2.087 6.765-6.683 6.762a69263 69263 0 0 0-98.885 0c-4.403.004-6.414-2.346-6.436-6.475-.07-12.485-.166-24.974.122-37.453.044-1.917 2.06-3.789 3.542-5.852M427.738 420.522c-4.445-.418-5.626-3.037-5.622-6.623.013-12.33.01-24.66.012-36.991 0-4.609 2.335-6.48 6.894-6.47 32.492.07 64.985.025 97.477.053 5.033.005 6.918 1.93 6.921 6.916.007 11.83-.028 23.661-.062 35.491-.017 6.072-1.566 7.617-7.712 7.619-32.492.011-64.985.007-97.908.005"/><path fill="#fb6d31" d="M305 715.002c-9.668 5.83-19.334 11.663-29.004 17.49-1.696 1.022-3.288 2.456-5.13 2.958-11.893 3.236-23.765 6.628-35.815 9.158-3.994.838-8.491-.716-12.759-1.176l-.077-1.354c2.544-1.84 5.087-3.68 7.626-5.879-.004-.358.057-.314.268-.365.438-.291.664-.532.89-.773 19.577-11.944 39.14-23.912 58.737-35.825 15.481-9.413 31.004-18.758 47.234-28.192 1.847-.448 2.969-.838 4.09-1.229.737-.071 1.474-.143 2.598.258.149 2.315.586 4.778-.441 5.897-6.092 6.634-12.518 12.959-18.84 19.38-6.454 6.556-12.918 13.102-19.377 19.652"/><path fill="#f97829" d="M304.994 715.38c6.465-6.928 12.929-13.474 19.383-20.03 6.322-6.421 12.748-12.746 18.84-19.38 1.027-1.119.59-3.582.799-5.787 2.047-.454 4.125-.546 6.793-.19 6.158.343 11.727.238 17.387.33.277.435.515.592.772 1.015-.683 1.286-1.205 2.347-1.996 3.142-9.611 9.673-19.261 19.308-28.903 28.951-9.09 9.09-18.167 18.194-27.282 27.259-1.855 1.844-3.854 3.544-5.787 5.31-5.427 2.642-10.854 5.284-16.64 7.962-.18-.591-.203-1.48.213-1.805 6.013-4.696 7.437-11.854 10.174-18.354.804-1.91 2.866-3.271 4.253-4.965.769-.94 1.333-2.048 1.994-3.458"/><path fill="#6238cb" d="M433.062 101.898c7.266 3.346 14.94 6.03 21.704 10.192 10.146 6.245 18.852 14.345 25.369 24.881a271 271 0 0 1-24.833.256c-4.844-.627-6.188-4.182-8.663-6.786-6.26-6.587-10.931-13.917-14.248-22.344-1.01-2.564-.987-4.28.67-6.199"/><path fill="#7233c5" d="M432.82 101.623c-1.416 2.195-1.439 3.91-.43 6.474 3.318 8.427 7.988 15.757 14.25 22.344 2.474 2.604 3.818 6.159 8.209 6.664-5.562.396-11.26.478-17.521.139-1.994-2.036-3.64-3.51-4.808-5.297-1.808-2.765-3.307-5.733-4.907-8.632-4.35-7.877-7.34-16.168-7.62-25.273 4.195 1.102 8.39 2.204 12.827 3.581"/><path fill="#6923e7" d="M90.985 553.414c5.296-2.047 10.601-3.69 15.892-5.378.778-.248 1.464-.976 2.23-1.041 4.969-.42 8.165-2.812 9.52-7.916.44 5.285.51 10.647.474 16.467-1.626 2.376-2.772 5.245-4.745 6.025-4.961 1.962-10.268 3.108-15.508 4.257-.903.199-2.637-.93-3.158-1.895-1.768-3.268-3.164-6.737-4.705-10.519"/><path fill="#802fbf" d="M419.66 97.875c.613 9.272 3.604 17.563 7.953 25.44 1.6 2.899 3.1 5.867 4.907 8.632 1.168 1.787 2.814 3.261 4.356 5.173-3.575.39-7.262.482-11.484.23a47 47 0 0 0-2.398-1.283c-.096-.817.099-1.854-.33-2.419-7.119-9.377-6.316-21.356-10.403-31.73-.58-1.471.285-3.511.653-5.658 2.251.236 4.331.842 6.745 1.615"/><path fill="#f7e418" d="M587.401 671.005c-5.424 0-10.447-.003-16.405-.005l-43.535.01c-10.488 0-20.508-.008-30.998-.005-5.15 0-9.832-.011-14.981-.224-.454-.471-.452-.74-.463-1.009.817-.114 1.634-.328 2.45-.328 35.948.013 71.896.045 108.232.21-1.04.54-2.47.945-4.3 1.351"/><path fill="#1db6ed" d="M704.01 292.53c.002 8.823-.003 17.177 0 26 .01.469-.01.469-.228.466a30 30 0 0 1-1.05-.041c-.124-3.302-.35-6.603-.354-9.904-.027-27.035-.013-54.07.075-81.565.571.958 1.43 2.365 1.473 3.795.166 5.59.073 11.188.081 17.252.003 7.823 0 15.177.004 23 .002 7.156-.003 13.842 0 20.997"/><path fill="#1dd5ba" d="M704.02 394.538c0 7.154-.008 13.838-.008 20.991 0 7.155-.01 13.84-.01 20.994-.004 7.82-.015 15.172-.018 22.99-.008.675-.025.884-.294 1.33-.543.08-.853-.007-1.183-.023-.032-28.644-.065-57.29.266-86.384.643-.442.924-.436 1.205-.431.01 6.688.02 13.376.041 20.533"/><path fill="#54e773" d="M703.987 563.538c-.305.465-.609.443-1.139.386-.306-24.62-.383-49.229-.162-74.336.601-.623.912-.722 1.231-.792.021 2.768.042 5.535.072 8.763.01 4.149.01 7.838.02 11.99.007 4.815.003 9.169.007 13.987.004 4.157 0 7.848.003 12 .001 5.145-.006 9.83-.005 14.98-.004 4.495-.016 8.526-.027 13.022"/><path fill="#fa1877" d="M208.002 136.914c1.74-.305 3.48-.87 5.22-.875 22.28-.06 44.561-.04 67.31-.039.468.276.468.551.475 1.033-10.265.333-20.536.507-30.807.576-13.438.091-26.877.1-40.885-.079-.79-.404-1.038-.535-1.313-.616"/><path fill="#32a5fb" d="M542 136.01c3.031-.002 6.062-.005 9.548-.01l39.979-.003c7.155 0 13.843.004 20.998.006.455.21.442.422.137.928-.745.5-1.198.704-1.651.908-22.7-.11-45.4-.22-68.549-.68-.458-.614-.462-.881-.462-1.148"/><path fill="#ca24be" d="M334.312 136.998c.738-.516 1.476-1.033 2.77-1.734 1-.214 1.444-.243 2.185.025 11.443.43 22.59.561 34.204.699 6.485.005 12.503.006 18.977.012 3.55.023 6.64.04 9.694.294-.187.526-.28.83-.316 1.153-22.258.047-44.515.094-67.18-.044-.407-.185-.334-.405-.334-.405"/><path fill="#1ac7d7" d="M703.984 373.604c-.287.396-.568.39-1.059.388-.306-18.041-.402-36.09-.346-54.587.43-.434.708-.421 1.195-.41.217 7.692.225 15.381.242 23.54.003 9.153-.004 17.838 0 26.99a342 342 0 0 1-.032 4.079"/><path fill="#4a94fb" d="M541.532 136.008c.468.27.472.537.488 1.004-17.024.298-34.055.395-51.532.356 3.238-.548 6.922-.957 11.061-1.37l22.976-.004c5.825.002 11.182.007 17.007.014"/><path fill="#7f7d0e" d="M381.916 669.489c.81-.146 1.622-.42 2.433-.42 29.297-.003 58.595.02 87.975.405-20.375.474-40.833.582-61.759.628-9.862-.245-19.255-.43-28.649-.613"/><path fill="#fdc917" d="M411.033 670.164c20.458-.108 40.916-.216 61.742-.524 2.718-.192 5.067-.183 7.83-.021.425.422.423.69.412 1.16-6.695.21-13.393.217-20.561.233-10.155 0-19.84-.009-29.995-.006-6.478-.005-12.487-.02-18.968-.237-.473-.202-.46-.605-.46-.605"/><path fill="#19987b" d="M703.906 488.389c-.308.477-.619.576-1.161.747-.342-9.101-.443-18.248-.391-27.856.483-.444.793-.358 1.314-.124.23 7.018.229 13.96.237 21.368.003 2.131-.004 3.794 0 5.865"/><path fill="#feaa1f" d="M410.565 670.102c.468.062.455.465.461.666-1.397.217-2.8.232-5.09.248a24352 24352 0 0 1-36.933-.025c-.292-.076-.53-.233-.748-.81-.032-.34-.055-.647-.055-.647.991-.028 1.983-.056 3.675.125 3.21.083 5.72-.044 8.229-.171.403-.016.805-.031 1.51-.023 9.696.208 19.09.392 28.951.637"/><path fill="#882092" d="M402.284 137.604c-.422-.48-.33-.784.275-1.3 2.454-.238 4.452-.247 6.45-.256 4.352.01 8.705.019 13.521.024 1.085.308 1.705.62 2.41 1.194-7.342.339-14.77.417-22.656.338"/><path fill="#7f7d0e" d="M367.748 669.361c.452.173.475.48.416.622-5.628.248-11.197.353-16.91.048 5.251-.555 10.647-.699 16.494-.67"/><path fill="#f41682" d="M119.096 281.561c-3.781-2.915-2.342-6.65-.512-10.477.467 3.282.545 6.656.512 10.477"/><path fill="#f7e418" d="M609.52 669.457c-2.417.364-5.274.647-8.299.627 2.508-.438 5.183-.573 8.299-.627"/><path fill="#7f7d0e" d="M379.672 669.322c-2.077.293-4.586.42-7.425.361 2.111-.3 4.552-.413 7.425-.361"/><path fill="#1c97ea" d="M700.22 212.346c.618.783 1.199 1.925 1.747 3.443-.616-.777-1.2-1.93-1.746-3.443"/><path fill="#f41682" d="M119.091 265.637c-.331-.601-.552-1.57-.44-2.591.406.706.479 1.465.44 2.591"/><path fill="#c11366" d="M207.744 136.96c.533.035.78.166 1.101.534-.718.434-1.534.68-2.658.792.228-.516.764-.897 1.557-1.326"/><path fill="#f91777" d="M136.29 177.884c.196-.83.675-1.801 1.515-2.801-.17.868-.702 1.763-1.515 2.801M133.336 181.996c.176-.854.635-1.865 1.463-2.908-.147.896-.664 1.823-1.463 2.908M128.621 190.132c.09-.898.459-1.968 1.212-3.09-.055.938-.494 1.927-1.212 3.09"/><path fill="#f97829" d="M340.685 669.71c-.746.496-1.868.886-3.375 1.269.743-.463 1.871-.918 3.375-1.269"/><path fill="#1b6790" d="M611.138 138.05c.326-.415.779-.62 1.496-.802.263.022.35.456.358.677-.57.26-1.148.297-1.854.125"/><path fill="#c11366" d="M198.152 139.377c.316-.421.907-.726 1.642-.85-.36.443-.864.704-1.642.85"/><path fill="#a8d635" d="M685.654 624.107c.062.487-.12 1.123-.624 1.72-.088-.55.146-1.06.624-1.72"/><g fill="#f91777"><path d="M183.527 142.629c.49-.492 1.38-1.01 2.715-1.466-.475.52-1.394.98-2.715 1.466M127.488 192.445c-.136-.525.03-1.262.567-2.13.16.551-.053 1.234-.567 2.13M187.283 141.443c.21-.332.787-.633 1.544-.7-.272.4-.725.566-1.544.7M190.448 140.544c.203-.306.74-.6 1.44-.633-.26.39-.683.517-1.44.633"/></g><path fill="#fe7a32" d="M230.736 735.093c.037.209-.189.45-.658.761-.031-.196.181-.462.658-.76"/><path fill="#c11366" d="M334.078 137c.234-.002.161.218.117.325-.23.173-.417.24-.88.198-.07-.363.2-.5.763-.523"/><path fill="#f91777" d="M130.472 186.518c-.141-.261.022-.694.504-1.286.145.266-.027.69-.504 1.286"/><path fill="#f5d315" d="M542.991 671.387c9.026-.383 18.048-.385 27.538-.385-4.5 9.122.38 15.09 6.67 21.095 2.873 2.742 4.524 6.763 6.764 10.553-.57.612-1.228 1.186-1.768 1.09-7.366-1.31-13.823 2.34-20.944 3.98-3.553.3-5.455-1.066-7.796-3.833-3.221-3.806-8.4-5.956-13.098-8.851-.357-3.198-.72-6.413-.272-9.511.668-4.628 1.907-9.174 2.906-14.138"/><path fill="#ff8d20" d="M384.995 671.012c6.685.002 13.37.003 20.521.012-1.253 2.128-2.985 4.239-4.69 6.371-4.225 5.284-8.293 10.702-12.697 15.833-4.28 4.987-8.934 9.65-13.357 14.516-6.844 7.528-13.473 15.257-20.485 22.623-6.928 7.277-14.325 14.105-21.308 21.331-4.327 4.477-8.267 9.329-12.68 14.156.22-3.048-.318-7.153 1.482-9.244 3.901-4.532 5.492-9.098 4.365-15.508 2.292-3.22 4.448-5.73 6.586-8.254 5.625-6.64 11.202-13.321 16.877-19.918 2.962-3.444 5.956-6.878 9.175-10.076 3.956-3.931 8.328-7.451 12.204-11.455 2.716-2.806 5.08-6.004 7.28-9.245 2.433-3.584 4.5-7.417 6.727-11.142"/><path fill="#ff176f" d="M294.954 135.634c-1.67.362-3.383.363-5.524.363 1.06-4.182 3.043-4.314 5.524-.363"/><path fill="#f91777" d="M53.961 344.735c-.3-.178-.607-.656-.93-1.433.298.18.61.655.93 1.433M52.884 337.807q-.334.168-.76-.578c.226-.122.482.069.76.578"/><path fill="#aa22ad" d="M391.991 135.994c-6.017 0-12.035 0-18.52-.407-.264-1.528-.218-2.708.171-3.762 2.113-5.728 1.122-8.38-4.278-11.124-1.148-.583-2.287-1.181-3.43-1.772 1.23-.808 2.462-1.615 3.878-2.68 4.297-2.513 8.41-4.766 13.058-6.877 2.385 2.068 5.348 3.732 5.874 5.969 1.59 6.765 2.234 13.752 3.247 20.653"/><path fill="#b61ea7" d="M365.626 119.083c1.45.437 2.59 1.035 3.738 1.618 5.4 2.744 6.39 5.396 4.278 11.124-.389 1.054-.435 2.234-.64 3.757-11.146.268-22.292.136-33.6-.576.775-1.363 1.714-2.146 2.652-2.929 5.907-3.186 11.824-6.354 17.715-9.568 1.884-1.028 3.702-2.178 5.857-3.426"/><path fill="#fa1877" d="M341.858 131.818c-.742 1.042-1.68 1.825-2.754 2.892-.578.311-1.022.34-1.8.38a20.6 20.6 0 0 1 4.554-3.272"/><path fill="#ff8424" d="M384.529 671.007c-1.76 3.73-3.828 7.563-6.261 11.147-2.2 3.241-4.564 6.44-7.28 9.245-3.876 4.004-8.248 7.524-12.204 11.455-3.219 3.198-6.213 6.632-9.175 10.076-5.675 6.597-11.252 13.277-16.877 19.918-2.138 2.525-4.294 5.035-6.587 7.852-6.082 4.737-12 9.2-17.97 13.593-1.39 1.023-2.957 1.806-4.809 2.703-.565-1.572-1.495-3.61-.84-4.644 3.085-4.872 2.432-10.174 2.474-15.892 1.933-2.226 3.932-3.926 5.787-5.77 9.115-9.065 18.193-18.168 27.282-27.259 9.642-9.643 19.292-19.278 28.903-28.95.79-.796 1.313-1.857 1.996-3.143 5.055-.343 10.075-.34 15.56-.33"/><path fill="#a025b2" d="M392.448 136c-1.47-6.907-2.114-13.894-3.704-20.66-.526-2.236-3.49-3.9-5.552-6.099 3.775-2.633 7.764-4.992 12.089-7.37 1.906.934 4.473 1.576 4.889 2.895 3.18 10.075 5.94 20.282 8.835 30.865-1.994.426-3.992.435-6.408.435-3.508-.026-6.6-.043-10.149-.066"/></svg>