<svg width="40" height="40" enable-background="new 0 0 821 821" viewBox="0 0 821 821" xmlns="http://www.w3.org/2000/svg">

    <path d="m210.399704 738.495728c-5.182419-3.495057-6.981812-8.519166-6.955078-14.580384.076355-17.319641-.093887-34.640869.08258-51.958984.036225-3.554382-1.177932-4.673096-4.528228-5.562683-39.174942-10.401856-65.858521-34.002625-77.207146-74.455261-1.006035-12.484803-1.900322-24.209168-2.690765-36.392273.035057-5.820374-.03373-11.182007-.001969-16.989136.031151-3.484314-.038246-6.523071-.008323-10.011048.040229-3.817016-.01886-7.184814.017974-11.01184.031113-5.820557-.033683-11.181977-.003112-17.003449.025795-7.821625-.043793-15.183197-.015671-23.003692.034332-6.483796-.029053-12.508576.006058-18.987336.0242-4.484802-.050087-8.515686-.022606-13.00473-.262574-6.817566-.626915-13.176941-.903099-19.991577.336937-5.154541.585723-9.853821.935478-15.012146.029098-10.152252-.042771-19.845429-.009682-29.99707.035996-14.152649-.032974-27.846863.002716-41.999634.031983-15.151764-.040695-29.845032-.004227-44.981812.035111-3.483947-.03894-6.524353-.006088-9.888672.036232-.767486-.034431-1.210998.007019-2.1026.033837-3.821807-.044441-7.195495-.009697-10.97467.040024-1.797363-.032959-3.189301.005135-4.949585.038551-1.126556-.033974-1.884735.005203-3.049683.169769-23.418182-1.433349-46.616455 7.963242-68.779068.16346-.504547.145752-.827819.428558-1.363525.514008-.895645.727478-1.578873.861023-2.2733-.079926-.011215-.005936.132248.272354-.04007.717606-1.162079 1.156922-2.151825 1.633072-3.224807.036835-.083222-.087189-.216416.2173-.38826.476929-.595902.649369-1.019974 1.065659-1.60788.667725-1.02858 1.091599-1.893326 1.798386-2.914932.799545-1.084183 1.316177-2.011505 2.058944-3.025772.498917-.307495.627732-.592972.895035-1.085419.813706-1.037949 1.344956-1.933899 2.171692-2.973282 12.696747-14.148086 26.858673-25.720123 45.066055-32.282608 1.320298-.48526 2.239609-.944626 3.181366-1.314209.022461.089783.207428.097076.574158.128326.819351-.133895 1.271973-.299057 1.940552-.432769.529693-.020264.75441-.189881 1.224243-.465744.7574-.116104 1.180679-.243866 2.028961-.33873 2.083588-.29303 3.742127-.618942 5.675186-.828827.778458-.145371 1.28241-.406738 2.217438-.679337 2.124176-.189285 3.817276-.367355 5.817764-.411102 1.123734-.112122 1.940079-.358566 3.226517-.569046 13.908859-.008072 27.34787-.016617 40.786316-.107605 10.271408-.069549 20.542099-.243378 31.25679-.224304 17.489502.107559 34.535339.068619 51.857636.13739.463195.041809.649902-.024109 1.287658-.012421 22.708557.030564 44.966126-.016464 67.681977.093933 7.885955.078965 15.313598.000504 23.192413.005616 4.137695-.008149 7.824219-.099869 11.962677-.068268 6.150146.041565 11.848297-.040207 17.999573-.000031 8.549957-.003067 16.646789-.128051 25.176147-.142776 3.430664.017364 6.428864-.075516 9.873322-.030975 17.476898.039657 34.507538-.058121 51.98056-.007798 23.142212.258438 45.84198.368775 68.669067.689759.70575.172668 1.284119.134689 2.286499.148681 4.62439.664902 8.864319 1.082764 13.018982 1.922364 27.761353 5.610076 47.82898 22.113449 63.50763 45.298126 3.533691 9.06813 6.920532 17.818344 10.269775 26.92749.546509 1.512238 1.130676 2.665527 1.667969 4.201492.060913 1.403488.168762 2.424317.161255 3.777542.086426 2.455292.288086 4.578171.403076 7.160401-.088135 27.494568-.102295 54.529815-.07489 81.565033.003296 3.301422.22998 6.6026.201355 10.353851-.056214 18.498016.039428 36.546112-.017212 55.037781-.119812 29.088409-.087402 57.733185-.208496 86.838104-.052185 9.607086.049133 18.754028.091919 28.353058.018921 25.061645.096496 49.671326.028198 74.721985-.559082 5.176697-.97229 9.912292-1.441711 15.075012-.468445 4.103821-.880677 7.780579-1.467164 11.781189-1.633056 5.481445-3.09198 10.639099-4.791442 16.046936-3.118836 5.733215-5.997254 11.216187-9.119935 16.848389-.477905.65979-.711547 1.170349-.955017 1.698242-.009765.017395-.018737-.033203-.297119.14685-3.341491 3.792603-6.404541 7.405213-9.766479 11.161377-6.351624 5.449158-12.404419 10.754761-18.835816 16.165284-4.693054 2.61969-9.007629 5.13446-13.754394 7.730835-4.00531 1.510803-7.578552 2.939941-11.581909 4.369873-7.121094 1.386901-13.81189 2.772888-20.94336 4.077758-3.115783.053894-5.790893.189026-8.840332.174317-3.112854-.046997-5.85144.055786-8.97821.023132-36.335877-.165344-72.28357-.19751-108.231232-.210693-.816803-.000305-1.633697.213928-2.864471.174927-2.763245-.161988-5.11258-.170899-7.913025-.345704-29.748596-.184692-59.046082-.20697-88.343567-.203796-.810883.000122-1.621765.273315-2.734558.395752-.704773-.008179-1.107605.00708-1.942139-.143189-2.87262-.052063-5.313599.061463-8.126221.151124-1.363098.004516-2.354614.032836-3.797668-.111939-5.847107-.029236-11.242615.114685-17.083283.22168-2.523407.054504-4.601684.145874-7.037262.127197-1.09375-.038208-1.8302.033569-2.942199.000183-1.504029.350281-2.632538.805664-4.101044 1.32666-15.844452 9.440735-31.366852 18.786438-46.848755 28.198609-19.596039 11.913391-39.159088 23.881042-58.999939 35.857849-.476181.298584-.688812.564575-.869598.810913.031845-.019653-.029251-.063416-.387848-.012024-6.175812 4.003052-12.370621 5.184875-19.078476 2.603455m351.988785-418.067536c3.02362 16.303528 6.88678 32.506561 8.854187 48.936554 2.3573 19.686493 1.819397 39.516846-.621216 59.291718-2.94989 23.900482-8.136047 47.214203-18.063843 69.186737-5.502502 12.178375-12.291687 23.77539-18.599548 35.822937 9.529297 0 19.470154.138061 29.399475-.13794 1.625671-.045227 3.56189-1.605407 4.746033-2.986938 27.256714-31.8013 40.975769-69.254242 45.319763-110.412903 2.440002-23.1185 1.417969-46.197174-2.905274-69.084198-6.270752-33.196625-19.400756-63.184723-41.663757-88.876587-.925598-1.068115-2.289429-2.465179-3.473572-2.488953-9.937744-.199432-19.881164-.113494-29.844055-.113494 5.279175 10.06372 10.811524 19.387298 15.156799 29.234741 4.420227 10.01709 7.67096 20.550201 11.695008 31.628326m-281.769776 200.362824c-22.954223-40.666291-31.856445-84.864411-30.858535-130.960328.998443-46.119873 10.9337-90.165466 37.333389-129.599945-9.85556 0-18.845947-.097229-27.830322.090455-1.598847.033416-3.681794.81546-4.680985 1.986053-11.956558 14.007599-21.92514 29.320953-29.203552 46.275696-19.255722 44.855346-22.760956 91.226806-12.504196 138.690185 6.614105 30.606873 19.997543 58.087983 40.246155 82.08606 1.418426 1.681091 3.480102 3.891601 5.319396 3.966247 9.737092.395264 19.498719.185547 29.980469.185547-2.781616-4.523559-5.107452-8.305908-7.801819-12.71997m11.176484-149.867829c-1.103882 1.892884-3.119446 3.764771-3.163666 5.682068-.287567 12.478882-.190705 24.967865-.121948 37.453034.022735 4.128814 2.032928 6.478607 6.43637 6.475463 32.961792-.023468 65.923554-.024292 98.885346-.000701 4.59613.003265 6.68222-2.306336 6.682617-6.761597.001129-12.152588-.019531-24.305206.015503-36.457703.012909-4.475677-2.013031-6.845001-6.597992-6.839569-33.792572.040039-67.585144.07367-102.13623.449005m136.37326 49.601502c32.492645-.000946 64.98526.003753 97.477905-.007782 6.145325-.002167 7.694519-1.54715 7.711975-7.618531.033936-11.830413.068421-23.660858.061646-35.491302-.002808-4.986939-1.887756-6.91156-6.920776-6.915924-32.492585-.028229-64.98523.016998-97.477662-.053192-4.558807-.009857-6.893493 1.860992-6.894043 6.469635-.001556 12.330475.001557 24.66098-.011688 36.991455-.003845 3.585815 1.177185 6.204468 6.052643 6.625641z"
          fill="#010001"/>
    <path d="m499.842651 40.679955c18.519043-9.089379 37.619507-9.823308 56.809754-2.920254 7.105713 2.556057 13.549621 6.95195 20.147278 10.866997-.444092 1.077674-1.205201 2.15673-.967835 2.463699 5.224487 6.756534 10.676697 13.339512 15.805298 20.166073 1.634033 2.175003 2.419067 4.977066 3.688416 7.442833.411743.799812 1.186584 2.09893 1.697387 2.054092 4.501648-.395103 5.540711 3.560532 7.827393 5.93718 1.355835 1.409172 2.545471 3.106689 4.15979 4.113067 3.870422 2.41285 4.58081 4.873413 2.658508 8.944916-.742309 1.572174-1.233093 3.833267-.672668 5.349548 2.175598 5.885804 4.226196 11.961449 7.470031 17.265099 2.799439 4.577133 2.09137 8.611298.823182 13.638626-2.066651 0-4.18158 0-6.764222.000855-7.15509-.001969-13.842468-.004761-20.580261-.351883-2.245972-2.899094-4.698608-5.277863-6.589538-8.041054-6.105042-8.921196-11.530762-18.346459-18.09668-26.903465-8.929749-11.637604-18.687866-22.638527-28.052918-33.943757-3.403564-4.108673-6.445556-8.550655-10.130188-12.381114-2.546386-2.647187-5.726074-4.844697-8.963073-6.624112-3.356201-1.84497-7.079834-3.06702-10.722687-4.331333-3.123749-1.084129-6.360291-1.843189-9.546967-2.746013z"
          fill="#2896ff"/>
    <path d="m612.992676 136.001831h6.296509c1.268188-5.027328 1.976257-9.061493-.823182-13.638626-3.243835-5.30365-5.294433-11.379295-7.470031-17.265099-.560425-1.516281-.069641-3.777374.672668-5.349548 1.922302-4.071503 1.211914-6.532066-2.658508-8.944916-1.614319-1.006378-2.803955-2.703895-4.15979-4.113067-2.286682-2.376648-3.325745-6.332283-7.827393-5.93718-.510803.044838-1.285644-1.25428-1.697387-2.054092-1.269349-2.465767-2.054383-5.26783-3.688416-7.442833-5.128601-6.826561-10.580811-13.409539-15.805298-20.166073-.237366-.306969.523743-1.386025 1.16095-2.172752 7.776977 5.960968 15.156189 12.060813 22.659424 18.004062 22.85028 18.099533 45.79779 36.07666 68.603759 54.231705 9.198548 7.322693 18.128113 14.983383 27.500061 23.025757 3.300538 5.658462 5.83014 11.97174 2.999451 16.795181-4.449097 7.581131-8.023865 15.034882-8.572082 23.825516-.006775.107803-.247742.200988-.379395.300995-15.531738-22.866745-35.599365-39.370118-63.360718-44.980194-4.154663-.8396-8.394592-1.257462-13.027282-2.143525-.432251-.273117-.518921-.707153-.490723-1.023864.04126-.528305.054321-.739884.067383-.951447z"
          fill="#2297fd"/>
    <path d="m385.061615 775.108459c-15.691376 2.390625-31.382751 4.78125-47.728729 6.846009-2.101288-.794434-3.547943-1.263062-5.188629-1.794495 1.960479-1.69989 3.684631-2.965637 5.135772-4.49115 8.062409-8.475769 16.175537-16.908386 24.040741-25.565246 6.448914-7.098023 12.541901-14.51825 18.854401-21.741639 7.374481-8.438598 14.869354-16.772216 22.215179-25.235412 9.251709-10.658997 18.405365-21.403076 28.070893-32.12085 10.154571-.002258 19.83963.005921 29.52478.378845-2.384094 3.664734-4.810547 6.935181-7.143036 10.271302-4.014709 5.742187-7.9198 11.561523-11.975952 17.273926-1.700379 2.394714-3.215027 5.41394-5.598236 6.741272-7.986633 4.447937-11.933075 12.58258-18.043762 18.704223-5.460846 5.470642-10.325531 11.536133-15.456635 17.336243-2.496368 2.821777-5.066009 5.581787-7.483642 8.469238-2.861481 3.417542-5.632233 6.913208-8.373749 10.428345-3.13797 4.02362-6.200592 8.105957-9.520722 12.457336 3.686219.868042 6.178772 1.455078 8.671326 2.042053z"
          fill="#ffa518"/>
    <path d="m499.478394 40.738922c3.550933.843857 6.787475 1.602917 9.911224 2.687046 3.642853 1.264313 7.366486 2.486363 10.722687 4.331333 3.236999 1.779415 6.416687 3.976925 8.963073 6.624112 3.684632 3.830459 6.726624 8.272441 10.130188 12.381114 9.365052 11.30523 19.123169 22.306153 28.052918 33.943757 6.565918 8.557006 11.991638 17.982269 18.09668 26.903465 1.89093 2.763191 4.343566 5.14196 6.121398 8.042625-13.436462.345642-26.455261.345413-39.51416-.021515-.281616-1.480713-1.113098-2.995376-.671631-3.645431 3.582459-5.274727-.476928-8.222763-3.321594-11.476334-3.019043-3.452987-6.398803-6.603348-9.275696-10.164848-4.696655-5.814278-8.906433-12.028893-13.717163-17.741524-3.483764-4.136894-7.656555-7.687355-11.436462-11.58239-8.444885-8.702133-17.346252-16.800499-28.230499-22.44498-4.073212-2.112328-7.966736-3.970795-12.386719-.657994-1.054382.790276-2.805237.651261-4.235779.939671 10.142426-6.019711 20.284821-12.039429 30.791535-18.118107z"
          fill="#318ffd"/>
    <path d="m118.979889 266.005493c.07299 1.391937.145973 2.783875-.283333 4.673279-1.942627 4.232635-3.381851 7.967712.286873 11.330688.070656.443543.141319.887055-.234695 1.70868-4.087876 2.346313-7.672707 4.431793-11.398743 6.223693-1.437981.691498-3.405914.342194-4.773995 1.107667-7.297668 4.083221-14.778137 7.944976-21.612953 12.717437-5.619476 3.923828-10.809486 8.656586-15.475799 13.692475-4.000195 4.317016-6.933831 9.612243-10.470726 14.377166-.705014.949768-2.005616 1.457459-3.058396 1.885407-.517986-.776032-1.009155-1.268433-1.500328-1.760864-.248306-.70044-.496616-1.40091-.423401-2.696534-.127159-2.149688-.57584-3.704193-1.024521-5.258728-.000003 0-.24694-.430969.084675-.920471.389134-1.600372.630059-2.737396.475704-3.818023-1.488884-10.423279-3.044254-20.837067-4.190761-31.259064 5.255848.150757 7.623234-3.501892 10.380085-6.559998 1.769638-1.962982 3.433193-4.035003 5.325066-5.871948 5.623306-5.460083 12.239059-10.183228 16.711944-16.44754 3.247116-4.547592 6.852234-7.505783 11.490395-10.076645 5.230667-2.899277 9.727432-7.865158 15.239402-9.35202 9.932663-2.679383 11.496079-10.236741 13.474472-18.08487 2.057679-8.162659 3.981965-16.360275 6.169762-24.48735.32357-1.20195 1.77697-2.099762 2.707642-3.138275-9.215431 21.981353-7.612313 45.179626-8.114708 68.6492-.224106 1.427643-.003884 2.397156.216339 3.366638z"
          fill="#f91777"/>
    <path d="m385.493835 775.103271c-2.924774-.581787-5.417327-1.168823-9.103546-2.036865 3.32013-4.351379 6.382752-8.433716 9.520722-12.457336 2.741516-3.515137 5.512268-7.010803 8.373749-10.428345 2.417633-2.887451 4.987274-5.647461 7.483642-8.469238 5.131104-5.80011 9.995789-11.865601 15.456635-17.336243 6.110687-6.121643 10.057129-14.256286 18.043762-18.704223 2.383209-1.327332 3.897857-4.346558 5.598236-6.741272 4.056152-5.712403 7.961243-11.531739 11.975952-17.273926 2.332489-3.336121 4.758942-6.606568 7.613129-10.279358 7.167755-.380249 13.865509-.387757 21.028198-.394165 5.146454.011535 9.828064.021972 14.442139.393188-9.89328 4.009461-15.214325 11.331909-18.533509 21.082825-1.457397 4.281555-5.203308 7.941833-8.399292 11.436829-4.741546 5.18518-10.172485 9.746337-14.83789 14.992981-4.679352 5.262329-8.856354 10.981506-13.114777 16.60559-5.468628 7.222412-10.813721 14.538636-16.180939 21.837342-1.979034 2.691101-2.5708 5.941955.101746 8.017151 1.736511 1.348205 4.769226 1.08551 7.238678 1.412841 1.958984.259644 3.944427.319458 5.918152.468018-17.397522 2.623047-34.795044 5.246094-52.624787 7.874206z"
          fill="#ffb415"/>
    <path d="m438.55777 767.261963c-2.412873-.181458-4.398316-.241272-6.3573-.500916-2.469452-.327331-5.502167-.064636-7.238678-1.412841-2.672546-2.075196-2.08078-5.32605-.101746-8.017151 5.367218-7.298706 10.712311-14.61493 16.180939-21.837342 4.258423-5.624084 8.435425-11.343261 13.114777-16.60559 4.665405-5.246644 10.096344-9.807801 14.83789-14.992981 3.195984-3.494996 6.941895-7.155274 8.399292-11.436829 3.319184-9.750916 8.640229-17.073364 19.002747-21.09259 10.557251-.363404 20.577759-.356263 30.560242.008972-1.183533 1.448425-2.188111 3.233215-3.500794 3.499695-4.036621.819336-5.568542 3.325256-6.616638 6.995422-3.641418 12.750977-11.821808 23.090454-19.868042 33.033997-7.83551 9.683105-17.729034 17.709594-26.790588 26.388671-5.740998 5.498536-9.963654 11.571595-8.547028 20.641358 1.535095-.17865 3.112-.580078 4.659424-.487732 1.982086.118286 3.94043.634033 5.908996.978577-11.068115 1.623352-22.13623 3.246765-33.643493 4.83728z"
          fill="#fec013"/>
    <path d="m472.640686 762.393555c-2.407989-.313416-4.366333-.829163-6.348419-.947449-1.547424-.092346-3.124329.309082-4.659424.487732-1.416626-9.069763 2.80603-15.142822 8.547028-20.641358 9.061554-8.679077 18.955078-16.705566 26.790588-26.388671 8.046234-9.943543 16.226624-20.28302 19.868042-33.033997 1.048096-3.670166 2.580017-6.176086 6.616638-6.995422 1.312683-.26648 2.317261-2.05127 3.968201-3.506958 5.527527-.364502 10.549682-.363526 15.567871.020019-.999695 4.963501-2.237976 9.5094-2.90625 14.137573-.447266 3.09784-.084961 6.312561-.085877 9.879883.186341 6.880249-4.395568 11.207642-7.410217 16.117066-6.823852 11.112732-14.316345 21.816589-21.069092 32.96997-1.287902 2.127137-.882019 5.661072-.274505 8.321534.181854.796508 3.685882 1.048828 5.690948 1.170776 4.411865.268372 8.838318.294739 13.25885.419922-14.926818 2.089905-29.853332 4.182617-44.780761 6.268188-4.109894.574097-8.222718 1.127259-12.773621 1.721192z"
          fill="#fecb12"/>
    <path d="m429.99173 671.016113c-9.196015 10.707337-18.349671 21.451416-27.60138 32.110413-7.345825 8.463196-14.840698 16.796814-22.215179 25.235412-6.3125 7.223389-12.405487 14.643616-18.854401 21.741639-7.865204 8.65686-15.978332 17.089477-24.040741 25.565246-1.451141 1.525513-3.175293 2.79126-5.135772 4.49115 1.640686.531433 3.087341 1.000061 4.752655 1.77124-10.82074 1.990174-21.860108 3.677796-33.522766 5.038147-4.880311-4.781494.458068-5.812927 2.281677-7.663818 4.572418-4.641113 9.535675-8.897156 14.642486-13.451416 4.413788-4.827209 8.353424-9.678772 12.680451-14.155945 6.983246-7.225769 14.380493-14.053833 21.30777-21.330749 7.012237-7.36615 13.641967-15.095337 20.485382-22.623597 4.423309-4.865966 9.077911-9.529174 13.357544-14.516113 4.403137-5.130859 8.471893-10.548462 12.696991-15.832641 1.704956-2.132325 3.436737-4.243164 5.576446-6.372193 1.823273-.023376 3.22644-.03833 5.095825-.052307 6.475159.015869 12.484101.030701 18.493012.045532z"
          fill="#ff971e"/>
    <path d="m327.05722 72.882545c7.602356 2.082642 15.204743 4.165276 22.516175 6.644822-6.236389-.93338-12.277222-1.946831-18.096009-3.698052-4.354736-1.3106-5.246093.48626-5.507232 4.163231-.549103 7.731499-1.766968 15.448219-1.796051 23.174446-.027252 7.234902-2.119965 14.853913 3.388153 21.511002 2.550812 3.082886 3.848236 7.202835 5.951324 11.317123-12.997863 0-25.757568 0-38.559356-.361267-2.480744-3.950638-4.46399-3.818939-6.352356.363846-1.468903.000458-2.537201-.001053-3.641053-.362015-1.943695-4.445923-4.285919-8.406906-3.888458-13.180458.382294-4.591568.441437-9.248718 1.307495-13.749107.692627-3.599411 2.378235-7.00856 3.634125-10.498192.328735-.91346.453888-2.075066 1.093597-2.669846 2.156556-2.005043 1.873566-3.680427.357361-6.063171-.809539-1.272247-.820404-3.876625-.038116-5.195526 3.419067-5.76445 8.297485-10.840126 7.967102-18.262688 2.107941.343804 3.838959.64772 5.815643 1.234612 4.625885 1.547866 8.953186 3.062606 13.401795 4.004196 4.080627.863701 8.292053 1.109176 12.445861 1.627044z"
          fill="#fa1877"/>
    <path d="m530.50177 754.376099c-4.727234-.097107-9.153687-.123474-13.565552-.391846-2.005066-.121948-5.509094-.374268-5.690948-1.170776-.607514-2.660462-1.013397-6.194397.274505-8.321534 6.752747-11.153381 14.24524-21.857238 21.069092-32.96997 3.014649-4.909424 7.596558-9.236817 7.767334-16.081177 4.698303 2.490539 9.877686 4.639954 13.098572 8.446533 2.341064 2.766846 4.243103 4.13324 7.589722 4.498047.205017.856201.489074 1.322082.508117 1.798584.442322 11.051819 7.473938 18.647766 13.970826 26.49054.638122.770324 1.959716 1.093139 3.029724 1.364379 3.001709.760682 6.576233.601563 8.946899 2.229309 4.756104 3.265748 9.510803 2.836182 14.705322 2.25879 4.911499-.54596 9.913697-.276368 14.875977-.36554-8.27655 1.293335-16.537048 2.701721-24.833008 3.855347-15.716309 2.185424-31.45282 4.224853-47.831604 6.026062-2.239502.133789-3.82843.566528-5.417358.999145-.398072.099182-.796204.198364-1.719117-.007141-2.111511.135803-3.698181.576355-5.28479 1.016785-.395691.098877-.79132.197693-1.493713.324463z"
          fill="#fdd411"/>
    <path d="m702.539673 227.026367c-.20166-2.122879-.40332-4.245758-.146485-6.744171 1.849183-2.077621 3.700623-3.584076 4.525574-5.526489 1.329712-3.131058 3.185364-4.586609 6.647034-4.841583 4.712219-.347123 9.421204-1.110291 14.047241-2.092209 2.139954-.454224 4.133362-2.760147 6.101685-2.646302 6.142028.355286 10.718078-2.909942 15.427429-5.818435 1.438415-.888367 2.117432-3.006363 3.144226-4.561249 9.414551 13.294571 13.969116 28.293259 14.242065 44.378647.153992 9.074829-1.31372 18.17717-2.528198 27.312301-.137817-4.838958.321533-9.718627.505737-14.608673.167359-4.443725.035462-8.898727.035462-13.34877-.358521.001328-.717041.00267-1.075501.004013-.14447 1.650055-.288879 3.30011-.468505 5.352494-1.852479-.261063-3.791871-1.187668-4.928772-.589341-7.777161 4.092789-16.30011.730408-24.244996 2.711899-1.223754.305191-2.839172.772797-3.76538.255524-5.815491-3.247742-11.738587-3.902573-17.885193-1.274841-2.783387 1.189865-5.444275 2.666091-8.165833 3.543655-.008301-6.06366.084534-11.661423-.081116-17.251526-.042358-1.43074-.90216-2.83728-1.386474-4.254944z"
          fill="#1c97ea"/>
    <path d="m51.98494 334.005585c1.025962-.711548 2.326564-1.219239 3.031578-2.169007 3.536895-4.764923 6.470531-10.06015 10.470726-14.377166 4.666313-5.035889 9.856323-9.768647 15.475799-13.692475 6.834816-4.772461 14.315285-8.634216 21.612953-12.717437 1.368081-.765473 3.336014-.416169 4.773995-1.107667 3.726036-1.7919 7.310867-3.87738 11.291847-5.89978.413826 2.986267.487877 6.026673.057396 9.603272-.902222 2.039673-1.59626 3.533966-1.642876 5.048217-.148498 4.82425-.053421 9.655945-.057586 14.484742-.006874 7.958252-8.164162 16.648437-16.182595 17.945221-3.129837.506164-6.398323 1.857422-8.985832 3.694122-7.650665 5.430664-15.044052 11.230682-22.426033 17.0289-2.31897 1.821442-4.176453 4.222015-6.443535 6.120667-1.827919 1.530853-3.954448 2.7052-5.962295 3.627105-1.021805-5.155456-2.029824-9.900299-3.033314-14.963684.003891-.743774.003254-1.169067-.003777-1.895874-.319549-.777588-.632709-1.253631-.952972-1.731933-.007103-.002259-.007538-.016907-.006454-.352112-.00726-.782623-.015603-1.230042-.024014-2.045105-.000984-1.102814-.001903-1.838013-.094292-2.798859-.277858-.508819-.533237-.699646-1.066894-.805664-.20929-.007538-.628079-.014374-.628079-.014374-.162975-.404876-.32595-.809723-.206256-1.664367.522613-.738739.762561-1.027741 1.00251-1.316742z"
          fill="#f41682"/>
    <path d="m752.281616 194.816574c-1.022033 1.534241-1.70105 3.652237-3.139465 4.540604-4.709351 2.908493-9.285401 6.173721-15.427429 5.818435-1.968323-.113845-3.961731 2.192078-6.101685 2.646302-4.626037.981918-9.335022 1.745086-14.047241 2.092209-3.46167.254974-5.317322 1.710525-6.647034 4.841583-.824951 1.942413-2.676391 3.448868-4.410339 5.194092-.450989-.977707-.558838-1.998536-.588257-3.778229-.501648-1.900681-1.081787-3.04245-1.661865-4.18422-3.386841-8.750213-6.773682-17.500427-10.307373-26.568573-.015259-.417923.225708-.511108.232483-.618911.548217-8.790634 4.122985-16.244385 8.572082-23.825516 2.830689-4.823441.301087-11.136719-2.716247-16.614761 7.202392 5.165603 14.727417 10.354309 21.613708 16.28479 10.3125 8.881118 20.176209 18.283416 30.315552 28.163574.813537 1.47464 1.542236 2.249756 2.270874 3.024872 0 .000015-.091553.104065-.127808.420685.690125 1.067031 1.416443 1.817459 2.142823 2.567871 0 0 .022399.015853.027221-.004807z"
          fill="#1f97f6"/>
    <path d="m468.508881 58.843224c1.60852-.274605 3.359375-.13559 4.413757-.925866 4.419983-3.312801 8.313507-1.454334 12.386719.657994 10.884247 5.644481 19.785614 13.742847 28.230499 22.44498 3.779907 3.895035 7.952698 7.445496 11.436462 11.58239 4.81073 5.712631 9.020508 11.927246 13.717163 17.741524 2.876893 3.5615 6.256653 6.711861 9.275696 10.164848 2.844666 3.253571 6.904053 6.201607 3.321594 11.476334-.441467.650055.390015 2.164718.217225 3.647537-3.445557.371811-6.476807.374817-9.975586.375458-5.824952-.007263-11.182373-.012146-16.537537-.453095.873596-5.243545-1.061645-9.290084-3.904053-12.807289-5.71643-7.073623-11.8862-13.783401-17.541229-20.903572-11.481323-14.45594-24.49292-26.802566-42.379456-33.064819-1.416473-.495934-2.223449-2.732842-3.313659-4.16066 2.721527-1.574768 5.443085-3.149528 8.784973-4.784515.867035-.328949 1.11377-.597672 1.360474-.866394 0 0 .328979-.138653.506958-.124855z"
          fill="#3a87fa"/>
    <path d="m609.960144 669.538452c6.690857-1.386047 13.381653-2.772034 20.395935-3.780884-4.723144 2.040284-9.769653 3.703308-15.352722 5.543152 3.622864 3.001099 7.065552 5.99054 10.651733 8.796509 8.73053 6.83075 17.654663 13.419739 26.264588 20.397522 9.854736 7.986694 19.402405 16.406616 33.472473 14.645142-6.892273 7.77124-15.109985 13.699096-25.096497 17.446533-7.610351.370056-11.892212-4.271363-16.243225-8.878601-.888428-.940674-2.2229-1.44281-3.257141-2.26593-9.68811-7.710694-19.57843-15.188477-28.954101-23.263367-6.7193-5.786926-12.067627-13.130676-19.935425-17.657776-3.648316-2.099182-5.33252-5.278992-4.504578-9.515259 1.830139-.406311 3.259094-.810791 4.687988-1.215332 2.738587-.102783 5.477173-.205566 8.757874.143738 3.399109.169617 6.256103-.112915 9.113098-.395447z"
          fill="#e2d91d"/>
    <path d="m587 671.007324c-.426758 4.234436 1.257446 7.414246 4.905762 9.513428 7.867798 4.5271 13.216125 11.87085 19.935425 17.657776 9.375671 8.07489 19.265991 15.552673 28.954101 23.263367 1.034241.82312 2.368713 1.325256 3.257141 2.26593 4.351013 4.607238 8.632874 9.248657 15.886048 8.91687-8.651673 2.722656-17.362671 5.107239-26.554627 7.125427-3.645874-1.766663-6.833679-3.117493-9.96991-4.579163-4.297119-2.002807-9.279419-3.272949-12.690429-6.297729-9.268067-8.219055-17.863709-17.196472-26.760498-26.2229-2.239807-3.790589-3.891419-7.811463-6.763855-10.553589-6.290528-6.005127-11.169495-11.973023-5.734558-21.095642 5.489807.00122 10.512573.003723 15.5354.006225z"
          fill="#eed818"/>
    <path d="m457.533447 64.770844c1.413239 1.275962 2.220215 3.51287 3.636688 4.008804 17.886536 6.262253 30.898133 18.608879 42.379456 33.064819 5.655029 7.120171 11.824799 13.829949 17.541229 20.903572 2.842408 3.517205 4.777649 7.563744 3.43628 12.809914-7.82074.438415-15.171479.438095-22.528504.066376-.960998-2.245652-1.590484-4.4012-2.926391-5.945801-6.027802-6.969399-12.806488-13.357697-18.268464-20.730408-6.455322-8.713554-15.094726-14.711922-23.682861-20.632934-6.486236-4.471848-14.168548-7.20887-21.318512-10.718003 7.136048-4.224823 14.272064-8.449653 21.731079-12.826339z"
          fill="#4381f7"/>
    <path d="m57.012268 362.004883c1.994061-1.332489 4.12059-2.506836 5.948509-4.037689 2.267082-1.898652 4.124565-4.299225 6.443535-6.120667 7.381981-5.798218 14.775368-11.598236 22.426033-17.0289 2.587509-1.8367 5.855995-3.187958 8.985832-3.694122 8.018433-1.296784 16.175721-9.986969 16.182595-17.945221.004165-4.828797-.090912-9.660492.057586-14.484742.046616-1.514251.740654-3.008544 1.53373-4.604675.468048 14.600586.540726 29.293854.116028 44.536591-.896591 1.382782-1.767334 2.310882-1.621781 3.034607 1.391693 6.920013-2.304161 9.904083-7.966957 13.074432-7.840683 4.38971-14.885856 10.244812-22.094146 15.706696-6.966126 5.27832-13.489762 11.163177-20.630433 16.180023-4.139782 2.908478-4.963558 6.002044-3.949134 10.606048.473686 2.149872-.457795 4.609345-.752385 6.928498-1.617942-10.400757-3.235889-20.801483-4.542736-31.884644.16198-3.877045.012852-7.071625-.136276-10.266235z"
          fill="#ed178a"/>
    <path d="m210.301743 738.969116c6.805816 2.108032 13.000625.926209 19.180481-2.718506-2.180497 2.147217-4.723633 3.987488-7.266785 5.827759.025574.451294.051163.902649.076736 1.353943 4.267426.460083 8.764527 2.014038 12.759278 1.175293 12.049255-2.529724 23.92163-5.921936 35.813995-9.157959 1.842346-.501282 3.434601-1.935486 5.13089-2.957581 9.66983-5.826599 19.336151-11.659118 28.998077-17.112182-.661895 1.409668-1.225586 2.517761-1.994751 3.457641-1.3862 1.694031-3.448364 3.054566-4.252594 4.965027-2.736694 6.500855-4.160736 13.658753-10.174072 18.35492-.416229.324951-.392242 1.213562-.710663 2.155395-1.057251 1.44043-1.767883 2.887085-2.928497 3.64148-12.769348 8.299743-26.440369 14.570678-41.414642 17.700805-6.572388 1.373902-13.064957 4.838318-19.963196 1.100342-.793518-.429993-1.842087-.389221-3.034409-.616638-.284653 1.517212-.522323 2.784058-.759994 4.050903-7.38855-8.942688-9.414704-19.552246-9.459854-31.220642z"
          fill="#fe7a32"/>
    <path d="m294.996338 135.995117h38.517242c-2.103088-4.114288-3.400512-8.234237-5.951324-11.317123-5.508118-6.657089-3.415405-14.2761-3.388153-21.511002.029083-7.726227 1.246948-15.442947 1.796051-23.174446.261139-3.676971 1.152496-5.473831 5.507232-4.163231 5.818787 1.751221 11.85962 2.764672 18.23288 4.037628.427826-.057342.369049.003365.551819.288369 1.420258.431747 2.657715.578491 3.895172.725235 0 0-.094269.02819.006226.236885.676452.119552 1.252441.030403 1.828399-.058747 10.618958 2.694489 21.237915 5.388977 31.570984 8.476776-1.905273.175393-3.560974.10421-5.137939-.285492-7.359162-1.818634-14.726654-3.617027-22.029053-5.646087-3.631348-1.009018-4.505859.370674-4.185028 3.681503.364471 3.761376.414123 7.55407.805542 11.311813.449036 4.310601.811737 8.668709 1.771301 12.878685 1.47815 6.485474 7.001068 3.376091 10.881165 4.151032.128448.025658.219665.237709.143219.621422-1.41626 1.065826-2.647522 1.8731-4.186219 2.834602-2.155273 1.248238-3.972656 2.398094-5.856597 3.425888-5.891571 3.21415-11.808258 6.382241-17.911042 9.309258-1.759857.921982-3.323852 2.10289-5.110077 3.457275-.960144.689911-1.698059 1.206329-2.670623 1.724854-.563324.022216-.831604.159744-1.039551.414657-17.045838.038941-34.091675.077881-51.587097-.235733-.450836-.627685-.450867-.902801-.05008-1.178436 1.464905-.002213 2.530213-.003906 3.595551-.005585 1.068329.001526 2.136627.003037 4.033539.003723 2.541198-.0018 4.253845-.002762 5.966461-.003723z"
          fill="#f4197f"/>
    <path d="m219.769638 770.174622c.22963-1.251709.4673-2.518555.751953-4.035767 1.192322.227417 2.240891.186645 3.034409.616638 6.898239 3.737976 13.390808.27356 19.963196-1.100342 14.974273-3.130127 28.645294-9.401062 41.414642-17.700805 1.160614-.754395 1.871246-2.20105 3.288208-3.677491 5.924225-2.993103 11.351105-5.634948 16.777954-7.816345-.041809 5.717346.611267 11.019959-2.473663 15.891541-.655121 1.034485.274261 3.072326.437866 5.005127-.762573 1.633117-1.180298 3.341614-2.264984 4.116455-8.71753 6.226562-17.552368 12.289367-26.368561 18.377319-5.758423 3.976441-11.545563 7.911377-17.319855 11.864868-9.298019-.292663-17.481277-3.405395-24.549255-9.511352-2.989563-2.582642-6.160767-4.955017-9.372009-8.111206-1.184479-1.770569-2.246399-2.852906-3.30832-3.935181.000016 0-.00354.001404-.011581.016541z"
          fill="#ff862c"/>
    <path d="m435.473938 77.731125c7.478394 3.375191 15.160706 6.112213 21.646942 10.584061 8.588135 5.921012 17.227539 11.91938 23.682861 20.632934 5.461976 7.372711 12.240662 13.761009 18.268464 20.730408 1.335907 1.544601 1.965393 3.700149 2.470947 5.948395-4.133179.783767-7.81723 1.193527-11.501251 1.603302-2.998169.092895-5.996369.185775-9.474579-.148468-6.949036-10.646424-15.655182-18.746895-25.801666-24.991555-6.763642-4.162704-14.437592-6.846328-21.946045-10.467102-4.436707-1.377304-8.63147-2.479431-13.160523-3.74842-2.414001-.772561-4.493744-1.378273-6.887543-2.134324-1.596405-.744834-2.878723-1.33934-4.161041-1.933837 8.845001-5.313813 17.689972-10.627633 26.863434-16.075394z"
          fill="#4c79f4"/>
    <path d="m704.012329 249.001587c2.716492-1.346314 5.37738-2.82254 8.160767-4.012405 6.146606-2.627732 12.069702-1.972901 17.885193 1.274841.926208.517273 2.541626.049667 3.76538-.255524 7.944886-1.981491 16.467835 1.38089 24.244996-2.711899 1.136901-.598327 3.076293.328278 4.928772.589341.179626-2.052384.324035-3.702439.468505-5.352494.35846-.001343.71698-.002685 1.075501-.004013 0 4.450043.131897 8.905045-.035462 13.34877-.184204 4.890046-.643554 9.769715-.664062 14.919373-.843018 6.81546-2.005127 13.365448-3.494629 19.678924-.333984-1.400512-.348328-2.564514-.345947-3.728485.007995-3.901397-.929199-6.901519-5.746948-6.91687-2.120301-.006744-4.24823-.488189-6.356324-.849731-5.62384-.964417-11.264709-1.855652-16.849975-3.011811-5.492249-1.136932-11.004212-2.303039-16.359497-3.940551-4.809388-1.470612-7.016419 2.963409-10.677552 3.504516-.003784-7.823272-.001281-15.177612.001282-22.531982z"
          fill="#1b9ae5"/>
    <path d="m61.784393 404.57074c.201477-2.734131 1.132958-5.193604.659272-7.343476-1.014424-4.604004-.190648-7.69757 3.949134-10.606048 7.140671-5.016846 13.664307-10.901703 20.630433-16.180023 7.20829-5.461884 14.253463-11.316986 22.094146-15.706696 5.662796-3.170349 9.35865-6.154419 7.966957-13.074432-.145553-.723725.72519-1.651825 1.517121-2.576081.461685 13.603272.530655 27.297486.13578 41.488343-4.035049 2.127868-7.992577 3.226104-11.109016 5.484832-11.966988 8.673523-26.3013 13.790558-36.846207 24.582123-.643211.658295-1.667511 1.167359-2.579079 1.299103-2.946594.425964-3.005546 1.862976-2.674995 4.553497.513313 4.177979.077492 8.472626.044021 12.717804-1.231483-8.074646-2.46297-16.149322-3.787567-24.638946z"
          fill="#e41794"/>
    <path d="m685.724243 715.120728c-14.40216 1.780639-23.949829-6.639283-33.804565-14.625977-8.609925-6.977783-17.534058-13.566772-26.264588-20.397522-3.586181-2.805969-7.028869-5.79541-10.651733-8.796509 5.583069-1.839844 10.629578-3.502868 15.782898-5.543945 3.679993-1.80719 7.253235-3.236328 11.082397-4.327576-1.12561 1.570313-2.507202 2.802796-4.167602 4.283997.933227.733703 1.513122 1.269653 2.166626 1.691467 11.46405 7.400879 22.953369 14.762695 34.402588 22.186524 7.75415 5.027893 15.194091 10.840881 25.339111 9.390563-4.517639 5.373292-9.035339 10.746583-13.885132 16.138978z"
          fill="#d4d923"/>
    <path d="m704.017395 272.002441c3.654785-1.009979 5.861816-5.444 10.671204-3.973388 5.355285 1.637512 10.867248 2.803619 16.359497 3.940551 5.585266 1.156159 11.226135 2.047394 16.849975 3.011811 2.108094.361542 4.236023.842987 6.356324.849731 4.817749.015351 5.754943 3.015473 5.746948 6.91687-.002381 1.163971.011963 2.327973.037597 3.94339-.894409 8.84079-1.807861 17.230133-3.24646 25.905518-.393249-6.067169-4.520629-7.554138-9.805297-8.741547-5.687928-1.278106-11.066162-3.873291-16.686707-5.530121-5.583618-1.645935-10.445007-5.667266-16.962585-4.473755-2.955689.54123-6.204773-.518981-9.327332-1.321105-.002136-7.154908.00238-13.841431.006836-20.527955z"
          fill="#1a9ddc"/>
    <path d="m583.997559 703c8.862243 8.676758 17.457885 17.654175 26.725952 25.87323 3.41101 3.02478 8.39331 4.294922 12.690429 6.297729 3.136231 1.46167 6.324036 2.8125 9.539917 4.554993-4.96643 1.073853-9.983825 1.805603-15.436889 2.486389-5.397888.038269-10.400086-.231323-15.311585.314637-5.194519.577392-9.949218 1.006958-14.705322-2.25879-2.370666-1.627746-5.94519-1.468627-8.946899-2.229309-1.070008-.27124-2.391602-.594055-3.029724-1.364379-6.496888-7.842774-13.528504-15.438721-13.970826-26.49054-.019043-.476502-.3031-.942383-.256591-2.078247 7.076049-2.026184 13.532775-5.675842 20.898559-4.365662.540039.09607 1.199219-.477661 1.802979-.740051z"
          fill="#f6d813"/>
    <path d="m760.385742 472.236664c2.953491 9.590027 5.906983 19.180054 8.53125 29.253174-3.028564.389495-6.025024 1.031311-8.378113.080688-13.402282-5.414368-26.813537-10.864532-39.876709-17.033172-5.691833-2.687775-10.814453-4.650849-16.756958-2.013398-.008606-7.408783-.007934-14.350067.014466-21.604828.038879-.522308.055969-.731109.522339-.933349 4.174133.528839 8.197509.321655 11.57135 1.701996 13.361633 5.466827 26.507263 11.460418 39.772216 17.167419 1.459229.627808 3.171021.668579 4.60022.949097 0-3.03653 0-5.302063-.000061-7.567627z"
          fill="#24c781"/>
    <path d="m65.662231 429.629211c-.0568-4.664703.379021-8.95935-.134292-13.137329-.330551-2.690521-.271599-4.127533 2.674995-4.553497.911568-.131744 1.935868-.640808 2.579079-1.299103 10.544907-10.791565 24.879219-15.9086 36.846207-24.582123 3.116439-2.258728 7.073967-3.356964 11.004051-5.026397.430755 9.654998.502624 19.348175.123848 29.445007-2.221131-2.712921-4.424164-2.601044-7.202286-.799988-2.192932 1.421692-4.570045 2.673554-7.025063 3.557129-11.40142 4.103363-20.725418 11.548279-30.184654 18.722046-3.649093 2.767456-7.099167 6.003754-4.545059 11.615692.511986 1.12497-.60006 2.989014-.963287 4.512299-1.027756-6.011414-2.055512-12.022827-3.173539-18.453736z"
          fill="#d9189f"/>
    <path d="m704.017151 292.998779c3.115967.333741 6.365051 1.393952 9.32074.852722 6.517578-1.193511 11.378967 2.82782 16.962585 4.473755 5.620545 1.65683 10.998779 4.252015 16.686707 5.530121 5.284668 1.187409 9.412048 2.674378 9.611633 9.087067-.563599 6.493042-1.458801 12.926636-2.900696 19.665314-4.359802-1.607727-8.1073-3.668-12.000793-5.400025-6.345215-2.822662-12.591736-6.760589-19.244263-7.73172-5.891174-.859985-12.253479-4.248077-18.442139-.945709-.003601-8.822815.001282-17.177185.006226-25.531525z"
          fill="#18a0d3"/>
    <path d="m760.420288 471.879028c-.034485 2.6232-.034485 4.888733-.034485 7.925263-1.429199-.280518-3.140991-.321289-4.60022-.949097-13.264953-5.707001-26.410583-11.700592-39.772216-17.167419-3.373841-1.380341-7.397217-1.173157-11.580017-2.168183-.446473-7.824981-.434937-15.177246.019775-22.526428 8.420532.168305 16.272339 1.303528 23.378906 5.021607 7.161988 3.747131 13.982117 8.143981 21.011231 12.152465.994873.567322 2.324585.547455 3.102844.714356.520386-2.0719.885559-3.525788 1.250671-4.979614 2.419312 7.206451 4.838684 14.412902 7.223511 21.97705z"
          fill="#1dc38d"/>
    <path d="m704.019409 318.998779c6.180176-3.770843 12.542481-.382751 18.433655.477234 6.652527.971131 12.899048 4.909058 19.244263 7.73172 3.893493 1.732025 7.640991 3.792298 11.800354 5.747406-1.076172 10.184937-2.498719 20.327545-4.384644 30.613709-1.7406-5.179383-5.574768-8.083924-10.270996-10.112641-6.422607-2.774475-13.169617-4.958221-19.224121-8.375702-5.177246-2.922302-9.940979-4.687408-15.601807-2.545837-.017395-8.158356-.025573-15.847717-.025268-23.536377.008545.000702.028564.000488.028564.000488z"
          fill="#18a5c9"/>
    <path d="m704.02533 343.003662c5.651611-2.610565 10.415344-.845459 15.59259 2.076843 6.054504 3.417481 12.801514 5.601227 19.224121 8.375702 4.696228 2.028717 8.530396 4.933258 10.112732 10.468598-.613648 7.287323-1.53241 14.362152-3.047669 21.765197-7.997009-3.187011-15.63977-6.280181-22.724121-10.346069-6.064697-3.480743-11.639221-7.554993-19.167785-5.819-.003235-9.152252.003418-17.836762.010132-26.521271z"
          fill="#17acbd"/>
    <path d="m703.914429 482.991455c5.933288-3.10495 11.055908-1.141876 16.747741 1.545899 13.063172 6.16864 26.474427 11.618804 39.876709 17.033172 2.353089.950623 5.349549.308807 8.457337.324432 2.851623 7.101838 5.296387 14.281128 7.732666 21.463257.104736.308899.13092.644348-.254944 1.335083-.931213.250306-1.439941.195557-1.8927.006592-20.705994-8.643371-41.374024-17.37973-62.152039-25.846252-2.507629-1.02179-5.606689-.592224-8.440185-1.294861-.029663-3.227417-.050782-5.995239-.083374-9.169922-.004761-2.070404.002014-3.733887.008789-5.3974z"
          fill="#2bcb77"/>
    <path d="m699.828247 698.781372c-10.363892 1.650696-17.803833-4.162292-25.557983-9.190185-11.449219-7.423829-22.938538-14.785645-34.402588-22.186524-.653504-.421814-1.233399-.957764-2.166626-1.691467 1.6604-1.481201 3.041992-2.713684 4.599731-4.365662 4.490784-2.934265 8.805359-5.449035 13.438355-7.64978-.774964 2.900818-.280396 4.509094 2.72052 5.377685 2.172241.628602 4.184509 1.904114 6.174011 3.053956 10.97998 6.345581 21.867065 12.855468 32.930847 19.050293 3.325318 1.861938 7.115112 2.894287 10.692139 4.30664-2.73645 4.364868-5.472962 8.729736-8.428406 13.295044z"
          fill="#c7d829"/>
    <path d="m778.32605 531.850952c.107178 10.227539.214355 20.455017-.170532 30.752686-.519104-5.861634-3.183228-8.717896-9.361023-7.704712-.68396.112121-1.531556-.501953-2.245484-.886597-5.805359-3.127869-11.551697-6.368347-17.402099-9.408935-12.151551-6.315247-24.299866-12.643067-36.585022-18.690369-2.543091-1.251831-5.675904-1.305786-8.545411-2.376587-.004699-4.818726-.000854-9.17273.387818-13.523254 6.47821 2.509948 12.566894 5.028015 18.666443 7.519287 4.408447 1.800537 8.984924 3.262695 13.21582 5.40924 8.912354 4.521607 17.447083 9.828736 26.513123 13.994141 8.339721 3.831726 11.602417 2.340149 15.526367-5.0849z"
          fill="#3bce69"/>
    <path d="m776.153931 573.057678c-1.987122 4.755066-3.974182 9.510071-6.35083 14.397827-3.694947-1.653625-7.03003-3.387146-10.300476-5.235229-14.80951-8.368591-29.595276-16.779297-44.402588-25.151856-3.667908-2.073974-7.3844-4.06195-11.086365-6.553222-.000733-5.14917.006409-9.834656.401733-14.518128 4.557373 2.223328 8.734009 4.43097 12.894348 6.668701 12.83313 6.902283 25.598694 13.934083 38.523316 20.660279 4.380066 2.279419 9.021423 4.53833 13.797912 5.407348 3.250916.591431 5.396546 1.250733 6.52295 4.32428z"
          fill="#4dd15c"/>
    <path d="m257.404175 791.876343c5.38092-4.114014 11.16806-8.04895 16.926483-12.025391 8.816193-6.087952 17.651031-12.150757 26.368561-18.377319 1.084686-.774841 1.502411-2.483338 2.631164-4.120423 1.887268-1.254516 3.453766-2.037414 4.843811-3.060119 5.970246-4.392578 11.88855-8.855713 17.826599-12.890747 1.271729 6.109985-.318817 10.676025-4.219696 15.207458-1.800262 2.091309-1.261383 6.196228-1.78305 9.388123-4.806549 4.410461-9.769806 8.666504-14.342224 13.307617-1.823609 1.850891-7.161988 2.882324-2.722534 7.642578-11.990296 2.225037-24.143708 4.285462-36.350251 5.958069-2.835571.38855-5.852203-.544434-9.178863-1.029846z"
          fill="#ff8e26"/>
    <path d="m708.520264 685.25293c-3.840638-1.178955-7.630432-2.211304-10.95575-4.073242-11.063782-6.194825-21.950867-12.704712-32.930847-19.050293-1.989502-1.149842-4.00177-2.425354-6.174011-3.053956-3.000916-.868591-3.495484-2.476867-2.34198-5.482543 6.112915-5.72461 12.16571-11.030213 18.771423-16.293946-.792541 2.298279-2.138061 4.554688-3.760681 7.275696 6.551147 3.771851 13.16095 7.438416 19.630188 11.338196 7.616211 4.591125 14.776428 10.043091 23.998779 11.287842 1.266846.171081 2.367493 1.572509 3.545105 2.404358-3.172912 5.138183-6.345825 10.276367-9.782226 15.647888z"
          fill="#b9d72f"/>
    <path d="m718.573975 669.378174c-1.449097-.604981-2.549744-2.006409-3.81659-2.17749-9.222351-1.244751-16.382568-6.696717-23.998779-11.287842-6.469238-3.89978-13.079041-7.566345-19.630188-11.338196 1.62262-2.721008 2.96814-4.977417 4.05957-7.41925 2.80896-3.798035 5.87201-7.410645 9.30835-10.821656 1.636536 1.791626 2.642517 3.741211 4.230408 4.87732 1.833923 1.312072 4.276977 1.732788 6.289062 2.842468 11.371887 6.270996 22.693726 12.632507 34.032654 18.963257-3.40094 5.378173-6.801941 10.756408-10.474487 16.361389z"
          fill="#a8d635"/>
    <path d="m778.345886 531.472656c-3.943786 7.803345-7.206482 9.294922-15.546203 5.463196-9.06604-4.165405-17.600769-9.472534-26.513123-13.994141-4.230896-2.146545-8.807373-3.608703-13.21582-5.40924-6.099549-2.491272-12.188233-5.009339-18.676514-7.980896-.395508-4.154419-.396118-7.843842-.396667-11.533264 2.824951.243103 5.924011-.186463 8.43164.835327 20.778015 8.466522 41.446045 17.202881 62.152039 25.846252.452759.188965.961487.243714 1.90625.440247.934204 2.037475 1.406189 3.995849 1.858398 6.332519z"
          fill="#33cd70"/>
    <path d="m704.021484 550.978943c3.694153 2.027527 7.410645 4.015503 11.078553 6.089477 14.807312 8.372559 29.593078 16.783265 44.402588 25.151856 3.270446 1.848083 6.605529 3.581604 10.18518 5.566101-.498474 1.750366-1.271301 3.302673-2.657776 5.07605-1.188965.520691-2.080566.677673-2.2901 1.142212-1.81958 4.034362-4.427795 4.01184-7.95697 2.107361-16.982483-9.164429-34.066956-18.140931-50.99231-27.40857-1.12268-.614685-1.225586-3.091675-1.803711-5.165832.010926-4.495179.022767-8.526917.034546-12.558655z"
          fill="#5bd255"/>
    <path d="m704.025146 369.992676c7.518616-2.203736 13.09314 1.870514 19.157837 5.351257 7.084351 4.065888 14.727112 7.159058 22.532715 10.68811-.106079 8.0383-.617248 16.062806-1.530395 24.635895-1.712586.56955-3.669434 1.164887-4.237488.525757-9.586121-10.784088-21.86499-15.413391-35.928528-16.656097-.020691-7.157013-.031006-13.844849-.035644-20.933899.017639-1.4711.029602-2.541077.041503-3.611023z"
          fill="#19b3ae"/>
    <path d="m776.366577 572.752686c-1.33905-2.768555-3.48468-3.427857-6.735596-4.019288-4.776489-.869018-9.417846-3.127929-13.797912-5.407348-12.924622-6.726196-25.690186-13.757996-38.523316-20.660279-4.160339-2.237731-8.336975-4.445373-12.902771-7.128784-.391723-4.153198-.386901-7.844482-.382019-11.535766 2.861023.606018 5.993836.659973 8.536927 1.911804 12.285156 6.047302 24.433471 12.375122 36.585022 18.690369 5.850402 3.040588 11.59674 6.281066 17.402099 9.408935.713928.384644 1.561524.998718 2.245484.886597 6.177795-1.013184 8.841919 1.843078 9.204834 8.018066-.249451 3.33905-.834778 6.434815-1.632752 9.835694z"
          fill="#43d063"/>
    <path d="m753.184448 449.547913c-.352783 1.807891-.717956 3.261779-1.238342 5.333679-.778259-.166901-2.107971-.147034-3.102844-.714356-7.029114-4.008484-13.849243-8.405334-21.011231-12.152465-7.106567-3.718079-14.958374-4.853302-23.387451-5.488953-.442566-7.156403-.43335-13.842316.017944-20.527466 12.707703.41214 23.504822 4.921936 33.14563 12.208069 4.762146 3.59906 5.84729 3.681946 8.643677-1.328522 2.306702 7.43866 4.613464 14.87732 6.932617 22.670014z"
          fill="#1bbe98"/>
    <path d="m369.99707 115.989784c-.108551-.12516-.199768-.337211-.328216-.362869-3.880097-.774941-9.403015 2.334442-10.881165-4.151032-.959564-4.209976-1.322265-8.568084-1.771301-12.878685-.391419-3.757743-.441071-7.550437-.805542-11.311813-.320831-3.310829.55368-4.690521 4.185028-3.681503 7.302399 2.02906 14.669891 3.827453 22.029053 5.646087 1.576965.389702 3.232666.460885 5.281219.625153.429138-.053635.369141.004532.538147.279388 2.365204.464318 4.561402.653763 6.757599.843209 3.762573.908302 7.525147 1.816604 11.405762 3.156929-3.518372 2.853126-7.154785 5.274238-11.126862 7.715591-4.324798 2.379196-8.313904 4.738152-12.625183 7.228241-4.434296 2.384514-8.546417 4.637909-12.658539 6.891304z"
          fill="#ee1a85"/>
    <path d="m729.303772 652.802612c-11.594238-6.116577-22.916077-12.478088-34.287964-18.749084-2.012085-1.10968-4.455139-1.530396-6.289062-2.842468-1.587891-1.136109-2.593872-3.085694-3.951966-5.057312-.094909-.381653-.085937-.331055.24524-.309144.513427-.614318.695678-1.250549.877929-1.886779 2.878357-5.482971 5.756775-10.965943 9.140686-16.476929 1.124512 2.443359.934448 5.911438 2.516846 7.195923 4.425293 3.592102 9.521606 6.38623 14.466309 9.303406 8.611694 5.080627 17.308288 10.017334 25.96936 15.014282-2.810669 4.531311-5.621399 9.062561-8.687378 13.808105z"
          fill="#97d53c"/>
    <path d="m699.739258 590.887878c.412231-3.676757.824463-7.353515 1.637085-11.403869 4.514343 2.791565 8.367004 6.394348 12.792969 9.037109 11.642517 6.951965 23.571533 13.422669 35.288146 20.253662 1.829102 1.066468 3.142396 3.017517 4.694214 4.559571-2.354309 3.835449-4.708679 7.670898-7.670227 11.574768-4.031433-1.56427-7.653564-2.882386-10.842956-4.888489-9.629029-6.056946-19.068787-12.413941-28.627197-18.584473-3.675599-2.372803-8.563782-3.834533-6.551575-9.935852.03717-.112671-.468201-.404297-.720459-.612427z"
          fill="#78d349"/>
    <path d="m754.424438 613.119446c-1.824584-1.327149-3.137878-3.278198-4.96698-4.344666-11.716613-6.830993-23.645629-13.301697-35.288146-20.253662-4.425965-2.642761-8.278626-6.245544-12.736756-9.464172.069031-4.789124.482239-9.524719 1.269592-14.691467.676209-.384522.980042-.362366 1.285645-.364502.57727 1.610778.680176 4.087768 1.802856 4.702453 16.925354 9.267639 34.009827 18.244141 50.99231 27.40857 3.529175 1.904479 6.13739 1.927001 7.95697-2.107361.209534-.464539 1.101135-.621521 2.033509-.939637-3.787476 6.600769-7.931885 13.220154-12.349 20.054444z"
          fill="#64ca4e"/>
    <path d="m699.565063 591.211731c.426453-.115723.931824.175903.894654.288574-2.012207 6.101319 2.875976 7.563049 6.551575 9.935852 9.55841 6.170532 18.998168 12.527527 28.627197 18.584473 3.189392 2.006103 6.811523 3.324219 10.611328 5.113953-2.330383 4.581909-5.036377 9.006835-8.000549 13.645813-8.91919-4.782837-17.615784-9.719544-26.227478-14.800171-4.944703-2.917176-10.041016-5.711304-14.466309-9.303406-1.582398-1.284485-1.392334-4.752564-2.276306-7.446106 1.193847-5.379883 2.652771-10.537537 4.285888-16.018982z"
          fill="#87d443"/>
    <path d="m118.997536 458.993591c.063377 6.024811.126762 12.049591-.225869 18.491516-1.610511.280152-3.054412-.354888-3.954589.095887-3.213768 1.609375-6.153969 3.762603-9.359955 5.390442-7.310265 3.711761-14.82856 7.028656-22.022942 10.945709-2.507484 1.365234-4.311363 4.022796-6.436561 6.090179-.750428-4.341888-1.500855-8.683777-1.92247-13.704315.64315-7.939148 5.713645-11.528809 11.328659-14.433472 9.851944-5.096405 19.8395-9.930694 30.034729-15.006439.462356.384949 1.510673 1.257721 2.558998 2.130493z"
          fill="#b21cba"/>
    <path d="m68.842613 448.507294c.356384-1.947632 1.46843-3.811676.956444-4.936646-2.554108-5.611938.895966-8.848236 4.545059-11.615692 9.459236-7.173767 18.783234-14.618683 30.184654-18.722046 2.455018-.883575 4.832131-2.135437 7.025063-3.557129 2.778122-1.801056 4.981155-1.912933 7.101311 1.259033.100898 4.7547-.147888 9.45398-.866585 14.613892-3.639404 1.76471-6.752853 3.231812-9.988319 4.343964-12.232216 4.204651-22.519806 11.927826-33.518372 18.361725-2.906593 1.700286-4.038124 3.965362-2.655548 7.454986.464554 1.172485-.557381 2.93396-.899895 4.426209-.625656-3.73465-1.251312-7.4693-1.883812-11.628296z"
          fill="#d019a6"/>
    <path d="m746.256226 426.49939c-2.800782 5.388977-3.885926 5.306091-8.648072 1.707031-9.640808-7.286133-20.437927-11.795929-33.154358-12.67627-.441894-7.153808-.433044-13.838592-.424255-20.523407 14.053284.77356 26.332153 5.402863 35.918274 16.186951.568054.63913 2.524902.043793 4.101562-.077576.914429 4.934632 1.562867 9.969666 2.206849 15.383271z"
          fill="#18b9a2"/>
    <path d="m76.986145 500.426636c2.136673-2.486695 3.940552-5.144257 6.448036-6.509491 7.194382-3.917053 14.712677-7.233948 22.022942-10.945709 3.205986-1.627839 6.146187-3.781067 9.359955-5.390442.900177-.450775 2.344078.184265 3.85688.363098.387886 7.403381.457474 14.764953.090393 22.536743-1.277359-.472412-2.11805-1.355103-3.17627-2.466156-11.375129 5.185333-22.706802 10.350891-34.248047 15.611969-.872589-1.459351-1.815017-3.035461-2.757446-4.611572-.535972-2.723023-1.071937-5.446076-1.596443-8.58844z"
          fill="#a21dc2"/>
    <path d="m70.697159 460.548706c.37178-1.905365 1.393715-3.66684.929161-4.839325-1.382576-3.489624-.251045-5.7547 2.655548-7.454986 10.998566-6.433899 21.286156-14.157074 33.518372-18.361725 3.235466-1.112152 6.348915-2.579254 9.900161-3.888703.746102 6.354004 1.110443 12.713379 1.02015 19.4646-1.282586-.881409-2.110543-2.154694-3.531571-4.340027-11.623032 6.313538-23.251648 12.290619-34.483032 18.938782-3.347527 1.981506-5.581574 5.844116-8.325791 8.844848-.570755-2.650116-1.14151-5.300262-1.682998-8.363464z"
          fill="#c71aad"/>
    <path d="m72.393219 468.927124c2.731155-3.015686 4.965202-6.878296 8.312729-8.859802 11.231384-6.648163 22.86-12.625244 34.483032-18.938782 1.421028 2.185333 2.248985 3.458618 3.429802 4.798218.427155 4.097198.501442 8.128082.477242 12.612884-1.146813-.418823-2.19513-1.291595-2.657486-1.676544-10.195229 5.075745-20.182785 9.910034-30.034729 15.006439-5.615014 2.904663-10.685509 6.494324-11.317154 14.000885-1.118836-4.928527-1.92038-10.103119-2.388947-15.683105.130837-.673157-.071297-.940888-.273437-1.208588 0 0-.017998-.036682-.031052-.051605z"
          fill="#be1bb2"/>
    <path d="m44.989635 288.013794c1.536362 10.416504 3.091732 20.830292 4.580616 31.253571.154355 1.080627-.08657 2.217651-.452293 3.57077-3.328682-19.259491-7.112678-38.68161-9.158096-58.285065-2.108109-20.204376 3.244632-39.071655 15.25758-55.623535 33.447696-46.08551 66.938762-92.140923 100.707714-137.990936 8.805862-11.956211 20.73172-20.09758 35.686233-23.708348.396927.269352.403244.713383.178055.993786-13.757629 5.121411-25.871353 11.964802-34.517303 23.944122-8.722352 12.08516-17.577439 24.074936-26.423569 36.070221-8.654915 11.736008-17.465592 23.358132-26.040947 35.15165-15.009766 20.642654-29.305367 41.835541-44.990982 61.947159-15.931969 20.427475-19.610985 43.434982-17.661648 68.125915.38641 4.894318 1.861565 9.702698 2.83464 14.55069z"
          fill="#fd2f64"/>
    <path d="m78.47731 509.409912c1.047707 1.181275 1.990135 2.757385 2.862724 4.216736 11.541245-5.261078 22.872918-10.426636 34.248047-15.611969 1.05822 1.111053 1.898911 1.993744 3.080895 2.926239.40609 5.411224.470886 10.772644.076767 16.558838-1.25132.213867-2.126549-.3302-2.823364-.156922-7.333863 1.823731-14.580666 4.048584-21.974762 5.559632-4.322564.883301-7.779999 5.36029-12.817955 3.091675-.919205-5.396485-1.838417-10.792969-2.652352-16.584229z"
          fill="#9120cb"/>
    <path d="m81.113396 526.408081c5.054222 1.854675 8.511657-2.622314 12.834221-3.505615 7.394096-1.511048 14.640899-3.735901 21.974762-5.559632.696815-.173278 1.572044.370789 2.727447.61615.422089 3.402161.481178 6.769959.092964 10.645142-3.353134 2.353027-6.036285 4.944885-9.210274 5.89209-7.02333 2.096008-14.26818 3.499267-21.484329 4.857605-1.428062.268738-3.132637-.931458-4.709694-1.454285-.747123-3.692505-1.494247-7.385071-2.225097-11.491455z"
          fill="#8121d3"/>
    <path d="m395.616486 101.849991c3.636383-2.421105 7.272796-4.842217 11.120636-7.516419.578277-.33892.945068-.424743 1.59262-.518814 1.56308.586258 2.845398 1.180764 4.270173 2.295159-.053956 2.296608-.918976 4.336769-.339386 5.807747 4.087554 10.374305 3.284851 22.353683 10.403991 31.730774.428406.564285.233979 1.601425-.13446 2.423095-4.816284-.004791-9.168671-.014175-13.525269-.440491-2.894928-10.582893-5.655273-20.79-8.834778-30.86483-.416503-1.319648-2.982879-1.960807-4.553527-2.916221z"
          fill="#8f2ab9"/>
    <path d="m118.997223 556.004883c.894287 11.724365 1.788574 23.44873 2.599922 35.573242-14.772812-10.264648-27.619484-22.503723-34.189682-40.218872.709572-.353943 1.137146-.351685 1.61219-.029968.685509.778076 1.323555 1.236572 1.965103 2.084777 1.541382 3.782044 2.937142 7.251343 4.704857 10.51941.521538.964172 2.255135 2.093139 3.158577 1.894897 5.239518-1.149841 10.54641-2.295654 15.508293-4.25769 1.972153-.779846 3.118462-3.648255 4.64074-5.565796z"
          fill="#5e27f0"/>
    <path d="m90.981247 553.024414c-.638039-.458557-1.276085-.917053-2.083725-2.004272-1.309067-2.09076-2.44854-3.552857-3.588028-5.014954-.675781-2.407715-1.35157-4.815369-1.999176-7.664368 1.605232.081543 3.309807 1.281739 4.737869 1.013001 7.216149-1.358338 14.460999-2.761597 21.484329-4.857605 3.173989-.947205 5.85714-3.539063 9.110955-5.442932.417381 2.980652.486778 6.019409.083519 9.580383-1.454521 5.54895-4.650948 7.94043-9.620125 8.361328-.766022.06488-1.452026.792725-2.230217 1.041138-5.290199 1.688659-10.5952 3.330932-15.895401 4.988281z"
          fill="#7421dc"/>
    <path d="m192.014633 47.943634s-.006317-.444031-.0103-.666023c11.881455-3.933167 24.07306-4.571022 36.008225-1.539257 24.256027 6.16151 48.323685 13.064682 72.734268 20.157901.249237.687829.233124.879952.217041 1.072075-1.730987-.303917-3.462005-.607833-5.912262-1.103309-17.455841-4.754536-34.202606-9.280651-50.925628-13.892815-12.098557-3.336758-24.10817-7.225037-36.926209-5.970192-5.076416.496967-10.124268 1.285721-15.185135 1.94162z"
          fill="#fd3664"/>
    <path d="m301.209564 67.251305c-.229614-.475098-.213501-.667221-.174957-1.147698 8.488525 1.929169 16.95462 4.146683 25.72168 6.571564-3.852875-.310494-8.064301-.555969-12.144928-1.41967-4.448609-.94159-8.77591-2.45633-13.401795-4.004196z"
          fill="#ff176f"/>
    <path d="m56.998482 361.594299c.162914 3.605194.312042 6.799774.1506 10.24646-1.690788-7.796661-3.07101-15.845398-4.130276-24.361999.527924-.488434.734883-.509033.941838-.529602 1.008014 4.744842 2.016033 9.489685 3.037838 14.645141z"
          fill="#f91777"/>
    <path d="m394.686951 90.772606c-1.881256.035667-4.077454-.153778-6.45456-.658058 1.925934-.06556 4.032807.183693 6.45456.658058z"
          fill="#f4197f"/>
    <path d="m85.297348 546.345337c1.151634 1.121948 2.291107 2.584045 3.552712 4.355286-.305451.306945-.733025.304687-1.481484.30072-.908379-1.439759-1.495888-2.877808-2.071228-4.656006z"
          fill="#6923e7"/>
    <path d="m48.982433 324.381531c.47612 1.178863.924801 2.733368 1.06844 4.508911-.568657-1.230438-.832268-2.681854-1.06844-4.508911z"
          fill="#fd2f64"/>
    <path d="m539.383789 753.084717c1.204529-.475342 2.793457-.908081 4.597168-1.010864-1.261108.571167-2.736938.812377-4.597168 1.010864z"
          fill="#fecb12"/>
    <path d="m532.379639 754.104492c1.202453-.493286 2.789123-.933838 4.591064-1.046448-1.258789.585022-2.732849.842164-4.591064 1.046448z"
          fill="#fecb12"/>
    <path d="m219.868271 770.471497c.974869.768859 2.036789 1.851196 3.08432 3.318786-1.008667-.744934-2.002976-1.875122-3.08432-3.318786z"
          fill="#fe7a32"/>
    <path d="m51.152233 337.338684c.036453-.35199.455242-.345154.762329-.117309.494515.504577.745674.698944 1.060566.811004.00092.735199.001839 1.470398-.314831 2.603302-.528812.424439-.740039.451172-.951267.477875-.19775-1.140961-.3955-2.281952-.556797-3.774872z"
          fill="#fd2f64"/>
    <path d="m53.965168 346.630615c-.211479.339112-.418438.359711-.936077.410279-.521492-1.096436-.732311-2.22284-.701435-3.701172.241695-.35196.673225-.353821.673225-.353821s.000435.014648.023518.314331c.329849.778442.636616 1.257263.943382 1.736053.000641.425263.001278.850556-.002613 1.59433z"
          fill="#fd2f64"/>
    <path d="m51.958122 333.721985c-.213131.572601-.453079.861603-.952957 1.270416-.406452-.717468-.552975-1.554779-.623436-2.71167.567238.172821 1.058407.665222 1.576393 1.441254z"
          fill="#fd2f64"/>
    <path d="m750.18335 191.514099c-.672608-.45639-1.401307-1.231506-2.107727-2.395721.69873.432922 1.375244 1.254974 2.107727 2.395721z"
          fill="#1c97ea"/>
    <path d="m752.202209 194.508392c-.674194-.437423-1.400512-1.187851-2.077575-2.322937.708008.413529 1.366699 1.211716 2.077575 2.322937z"
          fill="#1c97ea"/>
    <path d="m353.976776 80.539345c-1.056976.194458-2.294433.047714-3.728851-.423775 1.051513-.188972 2.299927-.0532 3.728851.423775z"
          fill="#fa1877"/>
    <path d="m355.673004 81.006393c-.25708.141442-.833069.230591-1.506378.061936.330902-.209946.759216-.162087 1.506378-.061936z"
          fill="#fa1877"/>
    <path d="m53.001965 342.650696c-.001084.335205-.432614.337066-.648278.338989-.374305-.404327-.532947-.810547-.668125-1.546448.234696-.356384.445923-.383117.974804-.439941.325996.417358.334339.864777.341599 1.6474z"
          fill="#f91777"/>
    <path d="m467.708191 58.976322c.047028.260479-.199707.529202-.717835.864773-.039581-.24094.192261-.548733.717835-.864773z"
          fill="#318ffd"/>
    <path d="m72.396164 469.211365c.230247.035064.432381.302795.392425.618255-.242095.04773-.420539-.38562-.392425-.618255z"
          fill="#c71aad"/>
    <path d="m191.789444 48.224037c5.286056-.936302 10.333908-1.725056 15.410324-2.222023 12.818039-1.254845 24.827652 2.633434 36.926209 5.970192 16.723022 4.612164 33.469787 9.138279 50.548706 13.852928 1.049621 7.614121-3.828797 12.689797-7.247864 18.454247-.782288 1.318901-.771423 3.923279.038116 5.195526 1.516205 2.382744 1.799195 4.058128-.357361 6.063171-.639709.59478-.764862 1.756386-1.093597 2.669846-1.25589 3.489632-2.941498 6.898781-3.634125 10.498192-.866058 4.500389-.925201 9.157539-1.307495 13.749107-.397461 4.773552 1.944763 8.734535 3.888458 13.180458-1.029815.361115-2.095123.362808-4.028808.36377-23.148743-.000367-45.429169-.020325-67.709381.039871-1.741059.004715-3.480591.569687-5.478424.921036-.793213.428344-1.328812.80989-1.864426 1.191467-1.6931.17807-3.3862.35614-5.654648.364624-1.166122.134979-1.756897.439545-2.347671.74411-1.658554.325913-3.317093.651825-5.563889.683258-1.125442-.000091-1.662659.294281-2.199875.588669-.135711.287521-.360428.457138-1.070312.242752-.973145.034668-1.55011.335419-2.127091.636169 0 0-.184967-.007293-.651733-.158416-1.357193.366379-2.24762.883911-3.138046 1.401428-17.806397 6.536606-31.968323 18.108643-45.026154 32.284729-1.135406 1.143372-1.614242 2.115311-2.093063 3.087265.015152.350464-.113663.635941-.982117.974899-1.05455 1.129349-1.513428 2.140259-1.972305 3.151184-.423889.864731-.847763 1.729477-1.83339 2.916153-.725235.755158-.888732 1.188401-1.052246 1.621628 0 0 .124024.133194-.297348.268845-.789856 1.205337-1.15834 2.275009-1.526825 3.344696 0 0-.07399-.143463-.367553-.000839-.458397.879837-.623223 1.61708-.788056 2.354309.017716.323288.035424.64656-.128036 1.151107-1.111832 1.219773-2.565232 2.117585-2.888802 3.319535-2.187797 8.127075-4.112083 16.324691-6.169762 24.48735-1.978393 7.848129-3.541809 15.405487-13.474472 18.08487-5.51197 1.486862-10.008735 6.452743-15.239402 9.35202-4.638161 2.570862-8.243279 5.529053-11.490395 10.076645-4.472885 6.264312-11.088638 10.987457-16.711944 16.44754-1.891873 1.836945-3.555428 3.908966-5.325066 5.871948-2.756851 3.058106-5.124237 6.710755-10.380085 6.559998-1.36293-4.842499-2.838085-9.650879-3.224495-14.545197-1.949337-24.690933 1.729679-47.69844 17.661648-68.125915 15.685615-20.111618 29.981216-41.304505 44.990982-61.947159 8.575355-11.793518 17.386032-23.415642 26.040947-35.15165 8.84613-11.995285 17.701217-23.985061 26.423569-36.070221 8.64595-11.97932 20.759674-18.822711 34.517303-23.944122z"
          fill="#ff176f"/>
    <path d="m562.257935 320.042725c-3.893494-10.692658-7.144227-21.225769-11.564454-31.242859-4.345275-9.847443-9.877624-19.171021-15.156799-29.234741 9.962891 0 19.906311-.085938 29.844055.113494 1.184143.023774 2.547974 1.420838 3.473572 2.488953 22.263001 25.691864 35.393005 55.679962 41.663757 88.876587 4.323243 22.887024 5.345276 45.965698 2.905274 69.084198-4.343994 41.158661-18.063049 78.611603-45.319763 110.412903-1.184143 1.381531-3.120362 2.941711-4.746033 2.986938-9.929321.276001-19.870178.13794-29.399475.13794 6.307861-12.047547 13.097046-23.644562 18.599548-35.822937 9.927796-21.972534 15.113953-45.286255 18.063843-69.186737 2.440613-19.774872 2.978516-39.605225.621216-59.291718-1.967407-16.429993-5.830567-32.633026-8.984741-49.322021z"
          fill="#fbfbfb"/>
    <path d="m280.802979 521.106873c2.510101 4.098205 4.835937 7.880554 7.617553 12.404113-10.48175 0-20.243377.209717-29.980469-.185547-1.839294-.074646-3.90097-2.285156-5.319396-3.966247-20.248612-23.998077-33.63205-51.479187-40.246155-82.08606-10.25676-47.463379-6.751526-93.834839 12.504196-138.690185 7.278412-16.954743 17.246994-32.268097 29.203552-46.275696.999191-1.170593 3.082138-1.952637 4.680985-1.986053 8.984375-.187684 17.974762-.090455 27.830322-.090455-26.399689 39.434479-36.334946 83.480072-37.333389 129.599945-.99791 46.095917 7.904312 90.294037 31.042801 131.276185z"
          fill="#fbfbfb"/>
    <path d="m292.174438 370.753357c34.171845-.205505 67.964417-.239136 101.756989-.279175 4.584961-.005432 6.610901 2.363892 6.597992 6.839569-.035034 12.152497-.014374 24.305115-.015503 36.457703-.000397 4.455261-2.086487 6.764862-6.682617 6.761597-32.961792-.023591-65.923554-.022767-98.885346.000701-4.403442.003144-6.413635-2.346649-6.43637-6.475463-.068757-12.485169-.165619-24.974152.121948-37.453034.04422-1.917297 2.059784-3.789184 3.542907-5.851898z"
          fill="#fafafa"/>
    <path d="m427.738312 420.521545c-4.445313-.418029-5.626343-3.036682-5.622498-6.622497.013245-12.330475.010132-24.66098.011688-36.991455.00055-4.608643 2.335236-6.479492 6.894043-6.469635 32.492432.07019 64.985077.024963 97.477662.053192 5.03302.004364 6.917968 1.928985 6.920776 6.915924.006775 11.830444-.02771 23.660889-.061646 35.491302-.017456 6.071381-1.56665 7.616364-7.711975 7.618531-32.492645.011535-64.98526.006836-97.90805.004638z"
          fill="#fafafa"/>
    <path d="m305 715.002441c-9.667511 5.830506-19.333832 11.663025-29.003662 17.489624-1.696289 1.022095-3.288544 2.456299-5.13089 2.957581-11.892365 3.236023-23.76474 6.628235-35.813995 9.157959-3.994751.838745-8.491852-.71521-12.759278-1.175293-.025573-.451294-.051162-.902649-.076736-1.353943 2.543152-1.840271 5.086288-3.680542 7.625381-5.87915-.004043-.358338.057053-.314575.268555-.364868.437607-.291382.663712-.532471.889832-.773499 19.57727-11.944275 39.140319-23.911926 58.736358-35.825317 15.481903-9.412171 31.004303-18.757874 47.233978-28.191346 1.84729-.448486 2.96933-.838623 4.091401-1.228759.736419-.071778 1.472869-.143555 2.59732.257263.148529 2.315002.585724 4.778747-.441711 5.897644-6.091095 6.633179-12.517578 12.958679-18.839325 19.3797-6.454224 6.555603-12.917755 13.101989-19.377228 19.652404z"
          fill="#fb6d31"/>
    <path d="m304.994415 715.379883c6.465058-6.927857 12.928589-13.474243 19.382813-20.029846 6.321747-6.421021 12.74823-12.746521 18.839325-19.3797 1.027435-1.118897.59024-3.582642.799072-5.787598 2.047516-.453979 4.125793-.545349 6.79303-.188965 6.158203.342286 11.727356.236756 17.387726.328431.276306.435302.514801.592468.771209 1.016052-.682434 1.285278-1.204986 2.346741-1.9953 3.142151-9.611481 9.673034-19.261658 19.307556-28.90329 28.950622-9.089447 9.090882-18.167053 18.193604-27.282287 27.258545-1.854859 1.844605-3.854096 3.544007-5.786713 5.310425-5.426849 2.641907-10.853729 5.283752-16.64032 7.961609-.178924-.590576-.202911-1.479187.213318-1.804138 6.013336-4.696167 7.437378-11.854065 10.174072-18.35492.80423-1.910461 2.866394-3.270996 4.252594-4.965027.769165-.93988 1.332856-2.047973 1.994751-3.457641z"
          fill="#f97829"/>
    <path d="m433.061523 101.89827c7.266541 3.345604 14.940491 6.029228 21.704133 10.191932 10.146484 6.24466 18.85263 14.345131 25.369171 24.881295-8.049317.441864-16.146149.566848-24.832703.255767-4.844452-.627426-6.188049-4.182724-8.662933-6.786392-6.260926-6.586731-10.931549-13.917053-14.248627-22.343735-1.009277-2.563942-.987-4.279495.670959-6.198867z"
          fill="#6238cb"/>
    <path d="m432.819611 101.6231c-1.416047 2.194542-1.438324 3.910095-.429047 6.474037 3.317078 8.426682 7.987701 15.757004 14.248627 22.343735 2.474884 2.603668 3.818481 6.158966 8.209839 6.664459-5.561585.395905-11.259736.477677-17.521027.138199-1.994446-2.035492-3.639526-3.509994-4.807617-5.296386-1.807984-2.764878-3.30716-5.733414-4.907471-8.632035-4.348968-7.877273-7.33963-16.167793-7.619568-25.273575 4.194794 1.102135 8.389557 2.204262 12.826264 3.581566z"
          fill="#7233c5"/>
    <path d="m90.984749 553.414062c5.296699-2.046997 10.6017-3.68927 15.891899-5.377929.778191-.248413 1.464195-.976258 2.230217-1.041138 4.969177-.420898 8.165604-2.812378 9.519577-7.915832.440895 5.284973.509682 10.646606.474625 16.46698-1.626122 2.376281-2.772431 5.24469-4.744584 6.024536-4.961883 1.962036-10.268775 3.107849-15.508293 4.25769-.903442.198242-2.637039-.930725-3.158577-1.894897-1.767715-3.268067-3.163475-6.737366-4.704864-10.51941z"
          fill="#6923e7"/>
    <path d="m419.659088 97.87468c.614197 9.272636 3.604859 17.563156 7.953827 25.440429 1.600311 2.898621 3.099487 5.867157 4.907471 8.632035 1.168091 1.786392 2.813171 3.260894 4.355652 5.173065-3.575348.389633-7.261872.481353-11.484345.229202-1.156586-.656738-1.777191-.969604-2.397797-1.282455-.095397-.817093.09903-1.854233-.329376-2.418518-7.11914-9.377091-6.316437-21.356469-10.403991-31.730774-.57959-1.470978.28543-3.511139.653472-5.65741 2.251343.236153 4.331086.841865 6.745087 1.614426z"
          fill="#802fbf"/>
    <path d="m587.401184 671.005493c-5.424011-.000671-10.446777-.003174-16.404968-.005188-9.957337.001831-18.979187.003235-28.001099.004578-5.022095-.000977-10.04425-.001953-15.533813.004394-10.487854.000183-20.508362-.006958-30.998108-.004394-5.150818-.000611-9.832428-.011048-14.981568-.223877-.453155-.471253-.451446-.740051-.462402-1.008911.816834-.114136 1.633728-.328369 2.450531-.328064 35.947662.013183 71.895355.045349 108.231232.210754-1.040711.539917-2.469666.944397-4.299805 1.350708z"
          fill="#f7e418"/>
    <path d="m704.010559 292.530396c.001648 8.822723-.003235 17.177093.000366 25.999908.008484.468475-.011535.468689-.228454.465881-.495179-.012573-.773194-.025482-1.051148-.041534-.12323-3.3013-.349914-6.602478-.35321-9.9039-.027405-27.035218-.013245-54.070465.07489-81.565048.570984.958328 1.430786 2.364868 1.473144 3.795608.16565 5.590103.072815 11.187866.081116 17.251526.002503 7.82312 0 15.17746.003784 23.000732.001892 7.155396-.002624 13.841919-.000488 20.996827z"
          fill="#1db6ed"/>
    <path d="m704.019226 394.537598c.001526 7.153961-.007324 13.838745-.007507 20.99176-.000489 7.154144-.009705 13.840057-.010315 20.993347-.002991 7.819641-.014527 15.171906-.017395 22.990357-.008362.674957-.025452.883758-.294434 1.32962-.542175.079407-.852295-.00705-1.182312-.022308-.032409-28.644806-.064819-57.289582.265564-86.384339.643555-.441986.924317-.435699 1.205139-.431152.010315 6.687866.02063 13.375702.04126 20.532715z"
          fill="#1dd5ba"/>
    <path d="m703.986938 563.537598c-.304748.465515-.608581.443359-1.138916.38684-.305847-24.619567-.383422-49.229248-.161987-74.3367.601074-.62323.911804-.721313 1.23114-.792023.021057 2.767823.042176 5.535645.071839 8.763031.009094 4.148987.009704 7.83841.020385 11.989411.006226 4.815551.002381 9.169555.00708 13.988281.003602 4.156067-.00122 7.847351.00232 11.998657.001282 5.145447-.00586 9.830933-.005127 14.980103-.003967 4.495483-.015808 8.527221-.026734 13.0224z"
          fill="#54e773"/>
    <path d="m208.001785 136.913605c1.74025-.304596 3.479782-.869568 5.220841-.874283 22.280212-.060196 44.560638-.040238 67.309814-.039353.46756.276368.467591.551484.474762 1.032654-10.265106.333496-20.535797.507325-30.807205.576874-13.438446.090988-26.877457.099533-40.884827-.079193-.790237-.404404-1.038498-.535721-1.313385-.616699z"
          fill="#fa1877"/>
    <path d="m542 136.010803c3.031189-.003021 6.062439-.006027 9.548035-.011139 13.473266-.001877 26.492065-.001648 39.979004-.00299 7.155456.001251 13.842834.004043 20.997924.006012.454651.210708.44159.422287.136902.928558-.744873.499054-1.198059.703384-1.651306.90773-22.699829-.110336-45.399597-.220673-68.548279-.67923-.458069-.615051-.462524-.881958-.46228-1.148941z"
          fill="#32a5fb"/>
    <path d="m334.312164 136.998108c.737915-.516419 1.47583-1.032837 2.770203-1.734161.999969-.213822 1.443512-.242737 2.184235.025299 11.44342.429046 22.58963.561157 34.203918.698486 6.485687.005676 12.503265.006103 18.977905.012665 3.548737.023071 6.640442.039993 9.693512.294037-.187256.525146-.279754.830185-.316192 1.152252-22.257538.047012-44.515107.09404-67.179627-.043595-.406952-.184661-.333954-.404968-.333954-.404983z"
          fill="#ca24be"/>
    <path d="m703.983643 373.603699c-.286499.396637-.567261.39035-1.058594.388733-.306153-18.041718-.401795-36.089814-.345581-54.58783.429809-.433899.707824-.42099 1.194458-.409119.216614 7.691468.224792 15.380829.242187 23.539185.002503 9.153503-.00415 17.838013-.000915 26.990265-.001953 1.537689-.013916 2.607666-.031555 4.078766z"
          fill="#1ac7d7"/>
    <path d="m541.53241 136.008423c.467346.269363.471801.53627.487487 1.003219-17.024169.297898-34.054809.395676-51.531707.356019 3.237732-.547211 6.921783-.956971 11.061248-1.369339 7.806183-.002274 15.156922-.001954 22.975464-.004273 5.825135.002228 11.182556.007111 17.007508.014374z"
          fill="#4a94fb"/>
    <path d="m381.916046 669.488647c.810883-.145874 1.621765-.419067 2.432648-.419189 29.297485-.003174 58.594971.019104 87.974975.404175-20.375091.474365-40.832702.582336-61.758667.628845-9.861877-.245605-19.255432-.429749-28.648956-.613831z"
          fill="#7f7d0e"/>
    <path d="m411.033386 670.16394c20.457581-.107971 40.915192-.215942 61.741394-.524353 2.717926-.191528 5.067261-.182617 7.830506-.020629.424896.421997.423187.690795.411438 1.160949-6.695099.208801-13.392853.216309-20.56073.231873-10.155121-.000183-19.84018-.008362-29.994751-.006104-6.478424-.004394-12.487366-.019226-18.968689-.236328-.472382-.20227-.459168-.605408-.459168-.605408z"
          fill="#fdc917"/>
    <path d="m703.90564 488.388855c-.307801.47757-.618531.575653-1.16095.746826-.341797-9.101166-.443115-18.248108-.39093-27.855194.48352-.444855.79364-.358398 1.314026-.124298.229492 7.0177.22882 13.958984.237365 21.367767.002503 2.131012-.004272 3.794495.000489 5.864899z"
          fill="#19987b"/>
    <path d="m410.565002 670.102478c.468384.061462.45517.4646.461335.665833-1.397004.216247-2.800171.231201-5.089936.247436-7.571594-.000366-14.256561-.002075-21.407806-.008545-5.486023-.008606-10.505798-.012512-15.525543-.016357-.29187-.076172-.530365-.233338-.74762-.810669-.032135-.339234-.055755-.645874-.055755-.645874.991485-.028321 1.983001-.056641 3.67572.125122 3.210235.082702 5.719269-.044556 8.228271-.171875.402863-.015259.805695-.030518 1.510468-.022339 9.695434.207519 19.088989.391663 28.950866.637268z"
          fill="#feaa1f"/>
    <path d="m402.284058 137.604095c-.421875-.479476-.329377-.784515.27478-1.300933 2.453735-.23732 4.451935-.246247 6.450134-.255188 4.352417.009384 8.704804.018768 13.521057.023559 1.084473.308274 1.705078.62114 2.410462 1.194306-7.342835.33876-14.770478.417221-22.656433.338256z"
          fill="#882092"/>
    <path d="m367.748108 669.361206c.451569.173096.475189.479736.416138.621765-5.628235.247559-11.197388.353089-16.910401.047669 5.251648-.554749 10.647156-.69867 16.494263-.669434z"
          fill="#7f7d0e"/>
    <path d="m119.095535 281.561401c-3.78083-2.914917-2.341606-6.649994-.511993-10.477172.467552 3.281677.54583 6.655365.511993 10.477172z"
          fill="#f41682"/>
    <path d="m609.519531 669.457275c-2.416382.363709-5.273376.646241-8.298218.626465 2.507325-.437439 5.182435-.572571 8.298218-.626465z"
          fill="#f7e418"/>
    <path d="m379.671997 669.322021c-2.077331.292847-4.586365.420105-7.424988.361146 2.111389-.299683 4.552368-.413209 7.424988-.361146z"
          fill="#7f7d0e"/>
    <path d="m700.220703 212.346283c.617676.782837 1.197815 1.924606 1.746399 3.442596-.615723-.777069-1.19989-1.930358-1.746399-3.442596z"
          fill="#1c97ea"/>
    <path d="m119.090973 265.637146c-.331307-.601135-.551529-1.570648-.439133-2.591553.405159.706818.477684 1.464997.439133 2.591553z"
          fill="#f41682"/>
    <path d="m207.744202 136.960373c.53247.03421.780731.165527 1.100876.533981-.717835.433228-1.53418.679672-2.657914.791779.228226-.515885.763825-.897431 1.557038-1.32576z"
          fill="#c11366"/>
    <path d="m136.289749 177.88443c.196366-.829971.675202-1.80191 1.515122-2.801849-.170166.86795-.701416 1.7639-1.515122 2.801849z"
          fill="#f91777"/>
    <path d="m133.33577 181.995621c.175979-.85405.634857-1.86496 1.463287-2.907349-.14711.895844-.663742 1.823166-1.463287 2.907349z"
          fill="#f91777"/>
    <path d="m128.621353 190.1315c.090195-.897369.458679-1.967041 1.211716-3.089157-.054794.937332-.49411 1.927078-1.211716 3.089157z"
          fill="#f91777"/>
    <path d="m340.685364 669.710327c-.746491.495239-1.868531.885376-3.375794 1.268311.743256-.462708 1.871765-.918091 3.375794-1.268311z"
          fill="#f97829"/>
    <path d="m611.137817 138.049622c.325989-.414994.779175-.619324 1.49585-.801651.263428.022018.350098.456054.358398.6772-.570129.25914-1.148498.297119-1.854248.124451z"
          fill="#1b6790"/>
    <path d="m198.151962 139.376572c.316269-.420578.907044-.725144 1.64209-.848893-.35968.44217-.863632.703537-1.64209.848893z"
          fill="#c11366"/>
    <path d="m685.653625 624.107056c.062073.486999-.120178 1.12323-.62384 1.720215-.087707-.549866.145935-1.060425.62384-1.720215z"
          fill="#a8d635"/>
    <g fill="#f91777">
        <path d="m183.527496 142.62854c.489441-.491638 1.379868-1.00917 2.7146-1.465347-.474991.520721-1.394302.980087-2.7146 1.465347z"/>
        <path d="m127.487976 192.44487c-.135689-.524811.029137-1.262054.567459-2.130692.160019.551819-.053451 1.235047-.567459 2.130692z"/>
        <path d="m187.28302 141.442657c.210251-.332.787216-.632751 1.544388-.698852-.272415.399795-.725037.564957-1.544388.698852z"/>
        <path d="m190.447815 140.544144c.203094-.306046.740311-.600418 1.440735-.63321-.260056.389344-.683335.517106-1.440735.63321z"/>
    </g>
    <path d="m230.735641 735.093384c.037446.208496-.188659.449585-.658126.76062-.030701-.196045.18193-.462036.658126-.76062z"
          fill="#fe7a32"/>
    <path d="m334.077515 137.000214c.234649-.002091.161651.218216.117614.325286-.230804.172974-.417511.238892-.880706.197083-.068512-.362625.199768-.500153.763092-.522369z"
          fill="#c11366"/>
    <path d="m130.471725 186.518433c-.140975-.261383.022522-.694626.503922-1.28595.145447.265976-.026993.690048-.503922 1.28595z"
          fill="#f91777"/>
    <path d="m542.991211 671.387451c9.025818-.383911 18.047668-.385315 27.537964-.385864-4.499512 9.122131.379455 15.090027 6.669983 21.095154 2.872436 2.742126 4.524048 6.763 6.763855 10.553589-.569214.61206-1.228394 1.185791-1.768433 1.089721-7.365784-1.31018-13.82251 2.339478-20.943115 3.980286-3.553589.300232-5.455628-1.066162-7.796692-3.833008-3.220886-3.806579-8.400269-5.955994-13.097717-8.851379-.357056-3.198365-.719361-6.413086-.272095-9.510926.668274-4.628173 1.906555-9.174072 2.90625-14.137573z"
          fill="#f5d315"/>
    <path d="m384.994873 671.011963c6.684967.001709 13.369934.003418 20.521423.012207-1.253112 2.127747-2.984893 4.238586-4.689849 6.370911-4.225098 5.284179-8.293854 10.701782-12.696991 15.832641-4.279633 4.986939-8.934235 9.650147-13.357544 14.516113-6.843415 7.52826-13.473145 15.257447-20.485382 22.623597-6.927277 7.276916-14.324524 14.10498-21.30777 21.330749-4.327027 4.477173-8.266663 9.328736-12.680481 14.155945.221435-3.048096-.317444-7.153015 1.482818-9.244324 3.900879-4.531433 5.491425-9.097473 4.364655-15.507629 2.292145-3.219483 4.447998-5.729614 6.586456-8.254517 5.624359-6.640564 11.20221-13.320862 16.876862-19.918091 2.9617-3.443115 5.956116-6.877624 9.174682-10.0755 3.956696-3.931274 8.328186-7.451416 12.204407-11.4552 2.716126-2.805542 5.079621-6.003601 7.27948-9.244385 2.433258-3.584595 4.500549-7.417664 6.727234-11.142517z"
          fill="#ff8d20"/>
    <path d="m294.954224 135.63385c-1.670502.362228-3.383149.36319-5.523743.363007 1.059753-4.181946 3.042999-4.313645 5.523743-.363007z"
          fill="#ff176f"/>
    <path d="m53.961388 344.734741c-.300373-.177246-.60714-.656067-.929886-1.432251.29718.17862.61034.654663.929886 1.432251z"
          fill="#f91777"/>
    <path d="m52.883659 337.806732c-.223423.113587-.474582-.08078-.759807-.577789.22657-.121857.481949.06897.759807.577789z"
          fill="#f91777"/>
    <path d="m391.991394 135.994247c-6.017609-.000412-12.035187-.000839-18.521057-.40718-.263702-1.527909-.217102-2.708191.171692-3.762238 2.112823-5.727699 1.121551-8.379898-4.27829-11.12368-1.147461-.583031-2.28717-1.181244-3.43045-1.772453 1.231262-.807259 2.462524-1.614533 3.878784-2.680352 4.297119-2.511955 8.40924-4.76535 13.057556-6.876144 2.385071 2.068245 5.348572 3.731918 5.874298 5.968567 1.590027 6.765205 2.234497 13.752647 3.247467 20.65348z"
          fill="#aa22ad"/>
    <path d="m365.625854 119.082932c1.450715.436973 2.590424 1.035186 3.737885 1.618217 5.399841 2.743782 6.391113 5.395981 4.27829 11.12368-.388794 1.054047-.435394 2.234329-.639771 3.757004-11.146026.26857-22.292236.136459-33.601013-.575363.77591-1.362976 1.714356-2.146225 2.652802-2.929474 5.906952-3.185928 11.823639-6.354019 17.71521-9.568169 1.883941-1.027794 3.701324-2.17765 5.856597-3.425895z"
          fill="#b61ea7"/>
    <path d="m341.858215 131.818085c-.742614 1.04216-1.68106 1.825409-2.75415 2.891449-.578186.311676-1.021729.340591-1.7995.38092 1.229798-1.169479 2.793793-2.350387 4.55365-3.272369z"
          fill="#fa1877"/>
    <path d="m384.528595 671.007202c-1.760407 3.729614-3.827698 7.562683-6.260956 11.147278-2.199859 3.240784-4.563354 6.438843-7.27948 9.244385-3.876221 4.003784-8.247711 7.523926-12.204407 11.4552-3.218566 3.197876-6.212982 6.632385-9.174682 10.0755-5.674652 6.597229-11.252503 13.277527-16.876862 19.918091-2.138458 2.524903-4.294311 5.035034-6.587219 7.852173-6.082245 4.737549-12.000549 9.200684-17.970795 13.593262-1.390045 1.022705-2.956543 1.805603-4.808014 2.702881-.565582-1.571595-1.494964-3.609436-.839843-4.643921 3.08493-4.871582 2.431854-10.174195 2.473663-15.891602 1.932617-2.226867 3.931854-3.926269 5.786713-5.770874 9.115234-9.064941 18.19284-18.167663 27.282287-27.258545 9.641632-9.643066 19.291809-19.277588 28.90329-28.950622.790314-.79541 1.312866-1.856873 1.9953-3.142151 5.055207-.343567 10.074982-.339661 15.561005-.331055z"
          fill="#ff8424"/>
    <path d="m392.448425 136.000397c-1.470001-6.906983-2.114471-13.894425-3.704498-20.65963-.525726-2.236649-3.489227-3.900322-5.552124-6.099693 3.775085-2.632683 7.764191-4.991639 12.088989-7.370842 1.906342.935173 4.472718 1.576332 4.889221 2.89598 3.179505 10.07483 5.93985 20.281937 8.834778 30.86483-1.994018.425873-3.992218.4348-6.407318.434998-3.508606-.02565-6.600311-.042572-10.149048-.065643z"
          fill="#a025b2"/>
</svg>